<svg width="16" height="15" viewBox="0 0 16 15" fill="none" xmlns="http://www.w3.org/2000/svg">
    <g clip-path="url(#clip0_4_2619)">
        <path
            d="M5.37919 10.1238L4.80209 10.1519L3.68319 13.3666C3.64754 13.4689 3.7305 13.5737 3.83834 13.5623L5.40671 13.3981C5.45053 13.3935 5.49408 13.4087 5.52558 13.4395L6.65304 14.542C6.73054 14.6178 6.86059 14.5873 6.89621 14.4849L8.02241 11.2492L7.69033 10.9269L5.37919 10.1238Z"
            fill="#FF4755" />
        <path
            d="M8.02196 11.249L8.24953 10.5952L5.02852 9.49988L4.80164 10.1517C5.71628 10.8044 6.82374 11.2039 8.02196 11.249Z"
            fill="#FC2B3A" />
        <path
            d="M11.1205 10.1238L11.6976 10.1519L12.8165 13.3666C12.8521 13.4689 12.7692 13.5737 12.6613 13.5623L11.093 13.3981C11.0492 13.3935 11.0056 13.4087 10.9741 13.4395L9.84667 14.542C9.76917 14.6178 9.63912 14.5873 9.6035 14.4849L8.47729 11.2492L8.80938 10.9269L11.1205 10.1238Z"
            fill="#FF4755" />
        <path
            d="M8.47671 11.249L8.24915 10.5952L11.4702 9.49988L11.697 10.1517C10.7824 10.8044 9.67493 11.2039 8.47671 11.249Z"
            fill="#FC2B3A" />
        <path
            d="M8.24914 10.2655C2.96509 10.2655 2.9673 5.13279 2.97168 5.04457C3.1104 2.25003 5.42015 0.0268555 8.24914 0.0268555C11.0781 0.0268555 13.3879 2.25003 13.5266 5.04459C13.531 5.13282 13.5332 10.2655 8.24914 10.2655Z"
            fill="#FFE27A" />
        <path
            d="M8.24963 10.062C5.42064 10.062 3.11098 7.83888 2.97223 5.04431C2.96785 5.13253 2.96558 5.22133 2.96558 5.31063C2.96558 8.22893 5.33134 10.5947 8.24963 10.5947C11.1679 10.5947 13.5337 8.22893 13.5337 5.31063C13.5337 5.2213 13.5314 5.13253 13.527 5.04431C13.3883 7.83888 11.0786 10.062 8.24963 10.062Z"
            fill="#F9CF58" />
        <path
            d="M8.2493 9.12839C4.09497 9.12839 4.0894 5.04329 4.09497 4.95521C4.23232 2.78031 6.03977 1.05884 8.2493 1.05884C10.4588 1.05884 12.2663 2.78031 12.4036 4.95521C12.4092 5.04326 12.4036 9.12839 8.2493 9.12839Z"
            fill="#FFBA57" />
        <path
            d="M8.24939 8.94071C6.03989 8.94071 4.23275 7.21918 4.0954 5.04431C4.08983 5.13239 4.08667 5.22116 4.08667 5.31063C4.08667 7.60963 5.95039 9.47335 8.24939 9.47335C10.5484 9.47335 12.4121 7.60963 12.4121 5.31063C12.4121 5.22113 12.409 5.13239 12.4034 5.04431C12.266 7.21918 10.4589 8.94071 8.24939 8.94071Z"
            fill="#FFAC3E" />
        <path
            d="M8.48706 7.78331C8.19806 7.78331 7.96375 7.54903 7.96375 7.25999V6.98321V4.32725C7.96375 4.32725 7.65063 4.64128 7.27599 4.45286C6.98389 4.30596 6.98389 3.92785 6.98389 3.92785L7.62908 2.83875C7.72331 2.6797 7.89446 2.58215 8.07933 2.58215H8.48706C8.77607 2.58215 9.01037 2.81643 9.01037 3.10546V6.98321V7.25999C9.01037 7.54903 8.77607 7.78331 8.48706 7.78331Z"
            fill="#FFE27A" />
        <path
            d="M7.89195 3.91649C7.75306 4.15097 7.45774 4.25264 7.21144 4.13593C7.11176 4.0887 7.03491 4.01532 6.98382 3.92866C6.8385 4.17448 6.91717 4.49073 7.15913 4.64013C7.40864 4.79423 7.74206 4.70223 7.89149 4.4499L7.96388 4.32767V3.93614C7.96388 3.89685 7.91199 3.88266 7.89195 3.91649Z"
            fill="#F9CF58" />
        <path
            d="M8.48742 7.50756C8.19842 7.50756 7.96411 7.27329 7.96411 6.98425V7.51692C7.96411 7.80595 8.19842 8.04023 8.48742 8.04023C8.77643 8.04023 9.01073 7.80595 9.01073 7.51692V6.98425C9.01073 7.27329 8.77643 7.50756 8.48742 7.50756Z"
            fill="#F9CF58" />
    </g>
    <defs>
        <clipPath id="clip0_4_2619">
            <rect width="14.5569" height="14.5569" fill="white"
                transform="translate(0.970703 0.0273438)" />
        </clipPath>
    </defs>
</svg>