<svg width="12" height="15" viewBox="0 0 12 15" fill="none" xmlns="http://www.w3.org/2000/svg">
    <path
        d="M5.47262 11.1428L3.12617 10.3313L2.60846 10.384L1.48959 13.5987C1.45394 13.7011 1.5369 13.8058 1.64474 13.7945L3.21311 13.6302C3.25692 13.6257 3.30048 13.6408 3.33198 13.6716L4.45943 14.7742C4.53694 14.85 4.66698 14.8194 4.70261 14.717L5.82881 11.4814L5.47262 11.1428Z"
        fill="#98DB7C" />
    <path
        d="M5.82848 11.4808L6.05605 10.827L2.83504 9.73169L2.60815 10.3835C3.5228 11.0362 4.63026 11.4357 5.82848 11.4808Z"
        fill="#82D361" />
    <path
        d="M6.64105 11.1428L8.9875 10.3313L9.50521 10.384L10.6241 13.5987C10.6597 13.7011 10.5768 13.8058 10.469 13.7945L8.90058 13.6302C8.85677 13.6257 8.81321 13.6408 8.78174 13.6716L7.65429 14.7742C7.57678 14.85 7.44674 14.8194 7.41111 14.717L6.28491 11.4814L6.64105 11.1428Z"
        fill="#98DB7C" />
    <path
        d="M6.28506 11.4809L6.0575 10.8272L9.2785 9.73181L9.50539 10.3837C8.59074 11.0363 7.48328 11.4358 6.28506 11.4809Z"
        fill="#82D361" />
    <path
        d="M6.05772 10.4784C0.780261 10.4784 0.775883 5.365 0.780261 5.27677C0.918979 2.48221 3.22873 0.259033 6.05772 0.259033C8.88484 0.259033 11.1934 2.47925 11.3349 5.27117C11.3395 5.36124 11.3349 10.4784 6.05772 10.4784Z"
        fill="#E0E0E0" />
    <path
        d="M6.05725 10.2943C3.22826 10.2943 0.918592 8.07117 0.779846 5.27661C0.775468 5.36483 0.773193 5.45363 0.773193 5.54293C0.773193 8.46123 3.13895 10.827 6.05725 10.827C8.97555 10.827 11.3413 8.46123 11.3413 5.54293C11.3413 5.4536 11.339 5.36483 11.3347 5.27661C11.1959 8.07117 8.88625 10.2943 6.05725 10.2943Z"
        fill="#CECECE" />
    <path
        d="M6.05585 9.37479C1.89313 9.37479 1.89595 5.36458 1.90152 5.2765C2.03887 3.1016 3.84632 1.38013 6.05585 1.38013C8.26538 1.38013 10.0728 3.1016 10.2102 5.2765C10.2158 5.36458 10.2102 9.37479 6.05585 9.37479Z"
        fill="#9E9E9E" />
    <path
        d="M6.05798 9.17298C3.84848 9.17298 2.04134 7.45145 1.90399 5.27661C1.89842 5.36469 1.89526 5.45346 1.89526 5.54293C1.89526 7.84193 3.75898 9.70565 6.05798 9.70565C8.35698 9.70565 10.2207 7.84193 10.2207 5.54293C10.2207 5.45343 10.2175 5.36469 10.212 5.27661C10.0746 7.45145 8.26748 9.17298 6.05798 9.17298Z"
        fill="#898989" />
    <path
        d="M7.2556 8.01585H4.86957C4.58056 8.01585 4.3574 7.51275 4.37915 7.39778C4.43951 7.07849 4.58158 6.77763 4.79371 6.52689L6.47256 4.54271C6.62965 4.35705 6.55956 4.15701 6.53432 4.10009C6.50364 4.03091 6.40825 3.86917 6.18603 3.86166C6.17961 3.86143 6.17292 3.86132 6.16624 3.86132C5.85409 3.86132 5.60017 4.11527 5.60017 4.42742C5.60017 4.71643 5.36587 4.95073 5.07686 4.95073C4.78785 4.95073 4.55355 4.71645 4.55355 4.42742C4.55355 3.53819 5.27699 2.8147 6.16624 2.8147C6.18464 2.8147 6.20295 2.81501 6.22117 2.81564C6.77758 2.8344 7.2641 3.16404 7.49107 3.67583C7.72142 4.19528 7.63729 4.78648 7.27152 5.21875L5.59269 7.20293C5.58652 7.21024 5.58047 7.21763 5.57455 7.22514H7.25562C7.44725 7.22514 7.61483 7.32815 7.70601 7.48182C7.7523 7.55989 7.5446 8.01585 7.2556 8.01585Z"
        fill="#E0E0E0" />
    <path
        d="M7.25382 7.73796H4.86779C4.6429 7.73796 4.4517 7.59583 4.37769 7.39673C4.35594 7.51173 4.34448 7.62904 4.34448 7.74732C4.34448 8.03635 4.57879 8.27063 4.86779 8.27063H7.25382C7.54283 8.27063 7.77714 8.03635 7.77714 7.74732C7.77714 7.64994 7.75004 7.55907 7.70373 7.481C7.61255 7.63464 7.44545 7.73796 7.25382 7.73796Z"
        fill="#CECECE" />
</svg>