<svg width="14" height="14" viewBox="0 0 14 14" fill="none" xmlns="http://www.w3.org/2000/svg">
    <g clip-path="url(#clip0_4_2682)">
        <path
            d="M6.39436 10.1274L4.41072 9.46615L3.82922 9.46289L2.81207 12.3853C2.77966 12.4783 2.85508 12.5735 2.95311 12.5632L4.3789 12.414C4.41873 12.4098 4.45833 12.4236 4.48697 12.4516L5.51193 13.4539C5.58239 13.5228 5.70061 13.495 5.733 13.4019L6.75681 10.4604L6.39436 10.1274Z"
            fill="#0083FD" />
        <path
            d="M6.75679 10.4612L6.96367 9.86687L4.03548 8.87109L3.82922 9.46368C4.66072 10.057 5.6675 10.4202 6.75679 10.4612Z"
            fill="#0072FC" />
        <path
            d="M7.53342 10.1274L9.51706 9.46615L10.0986 9.46289L11.1157 12.3853C11.1482 12.4784 11.0727 12.5736 10.9747 12.5633L9.5489 12.414C9.50907 12.4098 9.46948 12.4236 9.44087 12.4516L8.41591 13.4539C8.34545 13.5228 8.22723 13.495 8.19484 13.402L7.17102 10.4604L7.53342 10.1274Z"
            fill="#0083FD" />
        <path
            d="M7.17087 10.4612L6.96399 9.86687L9.89218 8.87109L10.0984 9.46368C9.26694 10.057 8.26016 10.4202 7.17087 10.4612Z"
            fill="#0072FC" />
        <path
            d="M6.9638 9.46298C2.1661 9.46298 2.16212 4.90057 2.1661 4.82037C2.29221 2.27986 4.39198 0.258789 6.9638 0.258789C9.53561 0.258789 11.6354 2.27986 11.7615 4.82037C11.7655 4.90057 11.7615 9.46298 6.9638 9.46298Z"
            fill="#FF9838" />
        <path
            d="M6.96372 9.38236C4.39191 9.38236 2.29222 7.36129 2.16608 4.8208C2.1621 4.901 2.16003 4.98172 2.16003 5.06291C2.16003 7.71591 4.31072 9.8666 6.96372 9.8666C9.61672 9.8666 11.7674 7.71591 11.7674 5.06291C11.7674 4.98172 11.7653 4.901 11.7614 4.8208C11.6352 7.36129 9.53554 9.38236 6.96372 9.38236Z"
            fill="#FF8709" />
        <path
            d="M10.7484 5.06285C10.7484 6.6833 9.0541 8.61452 6.9641 8.61452C4.8741 8.61452 3.17981 6.57704 3.17981 5.06285C3.17981 4.98151 3.18237 4.90079 3.18743 4.82072C3.31227 2.84354 4.95544 1.27856 6.9641 1.27856C8.97276 1.27856 10.6159 2.84354 10.7408 4.82072C10.7458 4.90079 10.7484 4.98151 10.7484 5.06285Z"
            fill="#CE7430" />
        <path
            d="M6.9641 8.36296C4.95546 8.36296 3.31261 6.79793 3.18774 4.8208C3.18268 4.90087 3.17981 4.98154 3.17981 5.06291C3.17981 7.15291 4.8741 8.8472 6.9641 8.8472C9.0541 8.8472 10.7484 7.15291 10.7484 5.06291C10.7484 4.98154 10.7455 4.90087 10.7405 4.8208C10.6156 6.79793 8.97273 8.36296 6.9641 8.36296Z"
            fill="#BC672E" />
        <path
            d="M6.96831 7.31066C6.15328 7.31066 5.63469 6.74883 5.53487 6.08224C5.5258 6.0216 5.52293 5.89147 5.52293 5.89147C5.59233 5.71465 5.76452 5.58945 5.96595 5.58945C6.22868 5.58945 6.44168 5.80242 6.44168 6.06518C6.44168 6.35557 6.67792 6.59181 6.96831 6.59181C7.2587 6.59181 7.49497 6.35557 7.49497 6.06518C7.49497 5.97787 7.47362 5.89547 7.43586 5.82289C7.43586 5.82289 7.40014 5.3743 6.9938 5.3743C6.58619 5.3743 6.5589 4.82045 6.5589 4.82045C6.64179 4.68075 6.79413 4.5871 6.96834 4.5871C7.25873 4.5871 7.49499 4.35086 7.49499 4.06048C7.49499 3.77009 7.25873 3.53385 6.96834 3.53385C6.67795 3.53385 6.44171 3.77009 6.44171 4.06048C6.44171 4.32323 6.2287 4.53621 5.96597 4.53621C5.70324 4.53621 5.49023 4.32323 5.49023 4.06048C5.49023 3.24547 6.15331 2.5824 6.96831 2.5824C7.78334 2.5824 8.44642 3.24547 8.44642 4.06048C8.44642 4.44694 8.29738 4.79918 8.0537 5.06284C8.24543 5.27029 8.37857 5.53258 8.42664 5.82323C8.42664 5.82323 8.42812 5.98276 8.41429 6.06399C8.29635 6.75726 7.78334 7.31066 6.96831 7.31066Z"
            fill="#FFAA5C" />
        <path
            d="M6.96826 5.05465C6.79406 5.05465 6.64216 4.96072 6.55929 4.82104C6.51716 4.89202 6.49255 4.97463 6.49255 5.06315C6.49255 5.32591 6.70553 5.53889 6.96829 5.53889C7.17137 5.53889 7.34764 5.65463 7.43547 5.82344C7.47323 5.75086 7.49495 5.66864 7.49495 5.58133C7.49492 5.29089 7.25865 5.05465 6.96826 5.05465Z"
            fill="#EA9957" />
        <path
            d="M6.96846 7.05901C6.26002 7.05901 5.66663 6.55791 5.52349 5.89161C5.50238 5.94542 5.49036 6.00383 5.49036 6.06517C5.49036 6.8802 6.15343 7.54327 6.96846 7.54327C7.78349 7.54327 8.44656 6.8802 8.44656 6.06517C8.44656 5.98274 8.4394 5.90202 8.42638 5.82324C8.31038 6.52333 7.70096 7.05901 6.96846 7.05901Z"
            fill="#EA9957" />
    </g>
    <defs>
        <clipPath id="clip0_4_2682">
            <rect width="13.2336" height="13.2336" fill="white"
                transform="translate(0.346558 0.260254)" />
        </clipPath>
    </defs>
</svg>