<svg width="26" height="32" viewBox="0 0 26 32" fill="none" xmlns="http://www.w3.org/2000/svg">
    <path
        d="M4.80212 19.3687L21.1978 19.3686C21.3397 19.3686 21.4749 19.3084 21.5697 19.2029C21.6645 19.0974 21.7101 18.9565 21.6949 18.8154C21.4667 16.6827 20.4611 14.7124 18.8634 13.2675C17.8612 12.3612 16.6756 11.7086 15.3992 11.345C16.5006 10.6825 17.3078 9.57905 17.574 8.28042V8.3773C17.574 8.5668 17.6811 8.74005 17.8507 8.82461C17.9214 8.85992 17.9978 8.8773 18.0739 8.8773C18.1804 8.8773 18.2862 8.8433 18.3745 8.77692L18.7814 8.47098L19.1882 8.77692C19.3397 8.89086 19.5424 8.90948 19.712 8.82467C19.8815 8.74005 19.9887 8.56686 19.9887 8.37736V6.2198C19.9887 6.04117 19.8934 5.87611 19.7387 5.7868L19.2813 5.52273V3.11798L19.282 3.1178C19.5011 3.05961 19.6536 2.8613 19.6536 2.63461C19.6536 2.40792 19.5011 2.20955 19.282 2.15142L13.1284 0.516734C13.0442 0.494422 12.9557 0.494422 12.8717 0.516734L6.718 2.15136C6.49887 2.20955 6.34637 2.40786 6.34637 2.63455C6.34637 2.86123 6.49887 3.05961 6.718 3.11773L8.29225 3.53592V6.51298C8.29225 6.60848 8.31956 6.69836 8.36694 6.77511C8.34412 6.96311 8.33119 7.15255 8.33119 7.34167C8.33119 9.0393 9.24219 10.5278 10.6007 11.345C9.32437 11.7086 8.13869 12.3612 7.1365 13.2675C5.53887 14.7124 4.53325 16.6827 4.305 18.8155C4.28987 18.9566 4.33544 19.0974 4.43025 19.2029C4.52506 19.3084 4.66025 19.3687 4.80212 19.3687ZM13.0001 12.652L12.222 12.0494C12.4781 12.024 12.7376 12.0105 13 12.0105C13.2625 12.0105 13.5219 12.024 13.778 12.0494L13.0001 12.652ZM10.9067 12.2955L12.2817 13.3605L11.5126 14.2725L10.4778 12.4284C10.619 12.38 10.7621 12.3359 10.9067 12.2955ZM15.0934 12.2956C15.238 12.3359 15.3811 12.38 15.5222 12.4284L14.4874 14.2725L13.7183 13.3605L15.0934 12.2956ZM18.9888 7.39036C18.8573 7.33042 18.7056 7.33042 18.5741 7.39036V6.50848L18.7815 6.38873L18.9888 6.50848V7.39036ZM18.2814 5.52273L17.8241 5.78673C17.7801 5.81217 17.7415 5.8443 17.7079 5.88061V3.53592L18.2814 3.38355V5.52273ZM13 1.51723L17.2061 2.63455L13 3.7518L8.79387 2.63455L13 1.51723ZM12.8717 4.75236C12.9137 4.76355 12.9569 4.76917 13.0001 4.76917C13.0432 4.76917 13.0864 4.76355 13.1284 4.75236L16.7079 3.80155V6.0968C16.1691 6.19705 15.7111 6.28561 15.3284 6.35955C13 6.80961 13 6.80961 10.6717 6.35955C10.289 6.28555 9.831 6.19698 9.29225 6.0968V3.80155L12.8717 4.75236ZM9.33119 7.34167C9.33119 7.26873 9.33412 7.19573 9.33844 7.1228C9.77562 7.20492 10.1567 7.27848 10.4819 7.34136C11.7292 7.58248 12.3646 7.70305 13.0001 7.70305C13.6355 7.70305 14.2709 7.58248 15.5182 7.34136C15.8434 7.27848 16.2245 7.20486 16.6617 7.12273C16.666 7.19567 16.6689 7.26867 16.6689 7.34161C16.6689 9.36461 15.0231 11.0105 13.0001 11.0105C10.977 11.0105 9.33119 9.36467 9.33119 7.34167ZM9.54862 12.8159L10.9936 15.3911C11.0739 15.5341 11.2191 15.6287 11.3824 15.6442C11.3982 15.6457 11.414 15.6464 11.4297 15.6464C11.5762 15.6464 11.7164 15.582 11.8119 15.4687L13 14.06L14.1881 15.4687C14.2836 15.582 14.4237 15.6464 14.5702 15.6464C14.5859 15.6464 14.6017 15.6457 14.6175 15.6442C14.7807 15.6287 14.9261 15.5341 15.0063 15.3911L16.4514 12.8159C18.5932 13.8784 20.1791 15.9049 20.6216 18.3686L5.37844 18.3687C5.82087 15.905 7.40681 13.8784 9.54862 12.8159ZM9.02712 22.9248C8.93987 22.6562 8.70137 22.4739 8.41944 22.4602L6.2895 22.3563L5.53262 20.3629C5.43262 20.0993 5.1855 19.929 4.90294 19.929C4.62044 19.929 4.37331 20.0994 4.27331 20.3627L3.51637 22.3562L1.3865 22.4601C1.1045 22.4738 0.865937 22.6562 0.778749 22.9247C0.691499 23.1932 0.777374 23.4809 0.997312 23.6577L2.65944 24.9937L2.10006 27.0514C2.02594 27.3238 2.12569 27.607 2.35406 27.773C2.47287 27.8593 2.61112 27.9027 2.74969 27.9027C2.87744 27.9027 3.0055 27.8657 3.11875 27.7916L4.90294 26.6237L6.68706 27.7916C6.92325 27.9461 7.22337 27.9389 7.45181 27.773C7.68019 27.607 7.77994 27.3238 7.70581 27.0514L7.14637 24.9937L8.80844 23.6578C9.02856 23.481 9.11437 23.1933 9.02712 22.9248ZM6.35325 24.3482C6.14456 24.516 6.05512 24.7914 6.12537 25.0498L6.51525 26.4839L5.27175 25.67C5.15969 25.5966 5.03125 25.5599 4.90287 25.5599C4.7745 25.5599 4.64606 25.5966 4.53406 25.67L3.29056 26.4839L3.68044 25.0497C3.75069 24.7914 3.66125 24.5161 3.4525 24.3482L2.29406 23.4171L3.77844 23.3447C4.046 23.3318 4.28031 23.1615 4.37537 22.9111L4.90287 21.5217L5.43044 22.911C5.5255 23.1615 5.75981 23.3317 6.02725 23.3447L7.51169 23.417L6.35325 24.3482ZM16.5164 26.0579L14.3866 25.954L13.6296 23.9605C13.5296 23.697 13.2825 23.5268 13.0001 23.5268C13.0001 23.5268 13.0001 23.5268 13 23.5268C12.7176 23.5268 12.4704 23.697 12.3704 23.9605L11.6135 25.954L9.48362 26.0579C9.20169 26.0715 8.96312 26.2539 8.87587 26.5224C8.78862 26.7909 8.87437 27.0786 9.09444 27.2555L10.7566 28.5914L10.1971 30.6492C10.1231 30.9215 10.2227 31.2047 10.4511 31.3706C10.6794 31.5365 10.9795 31.544 11.2158 31.3894L13 30.2214L14.7842 31.3894C14.8975 31.4635 15.0255 31.5003 15.1532 31.5003C15.2919 31.5003 15.4301 31.4569 15.5489 31.3705C15.7772 31.2047 15.8769 30.9214 15.8029 30.6491L15.2434 28.5913L16.9056 27.2554C17.1256 27.0785 17.2114 26.7907 17.1241 26.5223C17.0369 26.2539 16.7983 26.0715 16.5164 26.0579ZM14.4504 27.9459C14.2416 28.1138 14.1522 28.3892 14.2225 28.6475L14.6124 30.0817L13.369 29.2677C13.2569 29.1943 13.1285 29.1576 13.0001 29.1576C12.8717 29.1576 12.7432 29.1943 12.6312 29.2677L11.3877 30.0817L11.7776 28.6474C11.8479 28.389 11.7584 28.1137 11.5497 27.9459L10.3912 27.0148L11.8756 26.9425C12.1432 26.9295 12.3775 26.7593 12.4726 26.5089L13.0001 25.1194L13.5276 26.5088C13.6227 26.7593 13.857 26.9295 14.1244 26.9424L15.6089 27.0147L14.4504 27.9459ZM25.2212 22.9248C25.134 22.6563 24.8954 22.4739 24.6135 22.4602L22.4836 22.3563L21.7267 20.3628C21.6266 20.0992 21.3795 19.929 21.0971 19.929C20.8146 19.929 20.5674 20.0993 20.4674 20.3627L19.7106 22.3562L17.5807 22.4601C17.2987 22.4738 17.0601 22.6562 16.9729 22.9247C16.8857 23.1933 16.9716 23.481 17.1916 23.6577L18.8537 24.9937L18.2942 27.0514C18.2201 27.3237 18.3199 27.607 18.5482 27.7729C18.667 27.8593 18.8053 27.9027 18.9438 27.9027C19.0716 27.9027 19.1996 27.8657 19.3129 27.7916L21.0971 26.6237L22.8812 27.7916C23.1174 27.9461 23.4176 27.9389 23.646 27.773C23.8744 27.607 23.9741 27.3238 23.9 27.0514L23.3406 24.9937L25.0026 23.6579C25.2226 23.481 25.3085 23.1934 25.2212 22.9248ZM22.5474 24.3482C22.3387 24.5161 22.2492 24.7915 22.3196 25.0498L22.7094 26.4839L21.4661 25.67C21.354 25.5966 21.2255 25.5599 21.0971 25.5599C20.9686 25.5599 20.8403 25.5966 20.7282 25.67L19.4847 26.4839L19.8746 25.0497C19.9449 24.7914 19.8554 24.516 19.6467 24.3482L18.4883 23.4171L19.9726 23.3447C20.2402 23.3318 20.4745 23.1615 20.5696 22.9111L21.0971 21.5217L21.6246 22.911C21.7196 23.1615 21.954 23.3317 22.2214 23.3447L23.7058 23.417L22.5474 24.3482Z"
        fill="#FAA82A" />
</svg>