<svg width="20" height="21" viewBox="0 0 20 21" fill="none" xmlns="http://www.w3.org/2000/svg">
    <path
        d="M10.0002 0.160034C5.85804 0.160034 2.50017 3.5179 2.50017 7.66003V11.6624L0.893001 15.6841C0.790407 15.9409 0.821819 16.2318 0.976854 16.4607C1.13189 16.6896 1.39036 16.8267 1.66683 16.8267H6.66683C6.66683 18.674 8.1529 20.16 10.0002 20.16C11.8474 20.16 13.3335 18.674 13.3335 16.8267H18.3335C18.61 16.8267 18.8684 16.6896 19.0235 16.4607C19.1785 16.2318 19.2099 15.9409 19.1073 15.6841L17.5002 11.6624V7.66003C17.5002 3.5179 14.1423 0.160034 10.0002 0.160034ZM11.6668 16.8267C11.6668 17.7535 10.9269 18.4934 10.0002 18.4934C9.07337 18.4934 8.33349 17.7535 8.33349 16.8267H11.6668ZM4.16684 7.66003C4.16684 4.43837 6.77851 1.8267 10.0002 1.8267C13.2218 1.8267 15.8335 4.43837 15.8335 7.66003V11.8227C15.8335 11.9286 15.8537 12.0336 15.893 12.1319L17.1031 15.16H2.89726L4.10734 12.1319C4.14665 12.0336 4.16684 11.9286 4.16684 11.8227V7.66003Z"
        fill="#757575" />
</svg>