<svg width="21" height="20" viewBox="0 0 21 20" fill="none" xmlns="http://www.w3.org/2000/svg">
    <path d="M3.58325 18.3333V1.66666H16.9166V18.3333L10.2499 15L3.58325 18.3333Z" stroke="#575757"
        strokeWidth="1.25" stroke-linejoin="round" />
    <path
        d="M3.58325 1.66666V1.04166C3.41749 1.04166 3.25852 1.1075 3.14131 1.22471C3.0241 1.34192 2.95825 1.5009 2.95825 1.66666L3.58325 1.66666ZM3.58325 18.3333H2.95825V19.3446L3.86276 18.8923L3.58325 18.3333ZM16.9166 1.66666H17.5416C17.5416 1.32148 17.2618 1.04166 16.9166 1.04166V1.66666ZM16.9166 18.3333L16.6371 18.8923L17.5416 19.3446V18.3333H16.9166ZM10.2499 15L10.5294 14.441L10.2499 14.3012L9.97041 14.441L10.2499 15ZM2.95825 1.66666V18.3333H4.20825V1.66666L2.95825 1.66666ZM16.2916 1.66666V18.3333H17.5416V1.66666H16.2916ZM17.1961 17.7743L10.5294 14.441L9.97041 15.559L16.6371 18.8923L17.1961 17.7743ZM3.58325 2.29166H16.9166V1.04166H3.58325V2.29166ZM3.86276 18.8923L10.5294 15.559L9.97041 14.441L3.30374 17.7743L3.86276 18.8923Z"
        fill="#575757" />
</svg>