<svg width="20" height="20" viewBox="0 0 20 20" fill="none" xmlns="http://www.w3.org/2000/svg">
    <path
        d="M6.66675 16.8411L6.90638 16.2639L6.65742 16.1605L6.41138 16.2707L6.66675 16.8411ZM3.33341 18.3333L2.72989 18.1709C2.66719 18.4039 2.74419 18.6522 2.92774 18.8088C3.11128 18.9654 3.36857 19.0024 3.58878 18.9038L3.33341 18.3333ZM4.16675 15.2366L4.77028 15.3991L4.86805 15.0357L4.59271 14.7793L4.16675 15.2366ZM10.0001 1.04166C5.08366 1.04166 1.04175 4.8364 1.04175 9.58332H2.29175C2.29175 5.58641 5.7128 2.29166 10.0001 2.29166V1.04166ZM17.7084 9.58332C17.7084 13.5802 14.2874 16.875 10.0001 16.875V18.125C14.9165 18.125 18.9584 14.3302 18.9584 9.58332H17.7084ZM10.0001 2.29166C14.2874 2.29166 17.7084 5.58641 17.7084 9.58332H18.9584C18.9584 4.8364 14.9165 1.04166 10.0001 1.04166V2.29166ZM6.42711 17.4183C7.52306 17.8733 8.73183 18.125 10.0001 18.125V16.875C8.89808 16.875 7.85205 16.6565 6.90638 16.2639L6.42711 17.4183ZM6.41138 16.2707L3.07805 17.7629L3.58878 18.9038L6.92212 17.4116L6.41138 16.2707ZM1.04175 9.58332C1.04175 11.9834 2.08036 14.1476 3.74078 15.694L4.59271 14.7793C3.16763 13.452 2.29175 11.6119 2.29175 9.58332H1.04175ZM3.93694 18.4957L4.77028 15.3991L3.56322 15.0742L2.72989 18.1709L3.93694 18.4957Z"
        fill="#575757" />
    <path d="M9.99634 10H10.0038M13.3259 10H13.3334M6.66675 10H6.67422" stroke="#575757"
        strokeWidth="1.66667" stroke-linecap="square" stroke-linejoin="round" />
</svg>