<svg width="9" height="9" viewBox="0 0 9 9" fill="none" xmlns="http://www.w3.org/2000/svg">
    <path
        d="M7.11196 0.623024L7.56821 1.35321L8.40355 1.56134C8.5421 1.59598 8.59657 1.76349 8.50494 1.87306L7.9514 2.5324L8.01154 3.39106C8.02162 3.53338 7.87898 3.63729 7.74642 3.58376L6.94823 3.26102L6.15004 3.58376C6.0178 3.63729 5.87485 3.53369 5.88492 3.39106L5.94506 2.5324L5.39152 1.87306C5.29958 1.7638 5.35437 1.59598 5.49291 1.56134L6.32826 1.35321L6.7845 0.623024C6.85975 0.501798 7.0364 0.501798 7.11196 0.623024Z"
        fill="#575757" />
    <path
        d="M6.37096 5.01729L4.87633 2.85415C4.86638 2.83964 4.85305 2.82778 4.83749 2.81959C4.82192 2.81139 4.8046 2.80711 4.78701 2.80711C4.76943 2.80711 4.7521 2.81139 4.73654 2.81959C4.72098 2.82778 4.70765 2.83964 4.6977 2.85415L3.20307 5.01729C3.18875 5.03816 3.1676 5.05337 3.14326 5.06031C3.11892 5.06724 3.09293 5.06546 3.06976 5.05528L0.948945 4.11317C0.930009 4.10486 0.909098 4.1021 0.888653 4.10522C0.868208 4.10835 0.849074 4.11723 0.833487 4.13082C0.8179 4.14442 0.806504 4.16217 0.80063 4.182C0.794756 4.20183 0.794646 4.22292 0.800314 4.24281L2.03002 8.45379C2.03658 8.47638 2.0503 8.49622 2.06911 8.51034C2.08792 8.52446 2.1108 8.5321 2.13432 8.5321H7.44004C7.46356 8.5321 7.48644 8.52446 7.50525 8.51034C7.52406 8.49622 7.53778 8.47638 7.54435 8.45379L8.77405 4.24281C8.77972 4.22292 8.77961 4.20183 8.77373 4.182C8.76786 4.16217 8.75646 4.14442 8.74088 4.13082C8.72529 4.11723 8.70616 4.10835 8.68571 4.10522C8.66527 4.1021 8.64435 4.10486 8.62542 4.11317L6.5046 5.05528C6.48136 5.06536 6.45536 5.06708 6.431 5.06015C6.40664 5.05323 6.38542 5.03808 6.37096 5.01729Z"
        fill="#575757" />
</svg>