<svg width="32" height="32" viewBox="0 0 32 32" fill="none" xmlns="http://www.w3.org/2000/svg">
<rect width="32" height="32" rx="16" fill="#E6F3EC"/>
<g clip-path="url(#clip0_13_3234)">
<path d="M17.4843 9.03754C16.3621 8.34542 15.0324 7.96484 13.6587 7.96484C9.91945 7.96484 6.77637 10.7507 6.77637 14.3178C6.77637 15.5684 7.16488 16.7673 7.90288 17.8028L6.87194 21.0394C6.76303 21.3813 7.01912 21.7295 7.37647 21.7295C7.45818 21.7295 7.54041 21.7107 7.6163 21.6721L10.7515 20.0779C10.8785 20.1326 11.007 20.1835 11.1369 20.2307C10.411 19.0977 10.0234 17.7971 10.0234 16.4354C10.0234 12.3802 13.4356 9.26268 17.4843 9.03754Z" fill="#008643"/>
<path d="M23.7207 19.9202C24.4587 18.8848 24.8472 17.6859 24.8472 16.4352C24.8472 12.8668 21.7028 10.0823 17.9649 10.0823C14.2256 10.0823 11.0825 12.8681 11.0825 16.4352C11.0825 20.0036 14.2269 22.7882 17.9649 22.7882C18.9678 22.7882 19.9672 22.5838 20.8719 22.1953L24.0073 23.7895C24.1976 23.8862 24.4274 23.8592 24.5901 23.721C24.7527 23.5827 24.8165 23.3603 24.7517 23.1569L23.7207 19.9202ZM15.8119 16.9646C15.5196 16.9646 15.2825 16.7276 15.2825 16.4352C15.2825 16.1428 15.5196 15.9058 15.8119 15.9058C16.1043 15.9058 16.3413 16.1428 16.3413 16.4352C16.3413 16.7276 16.1043 16.9646 15.8119 16.9646ZM17.9296 16.9646C17.6372 16.9646 17.4002 16.7276 17.4002 16.4352C17.4002 16.1428 17.6372 15.9058 17.9296 15.9058C18.222 15.9058 18.459 16.1428 18.459 16.4352C18.459 16.7276 18.222 16.9646 17.9296 16.9646ZM20.0472 16.9646C19.7548 16.9646 19.5178 16.7276 19.5178 16.4352C19.5178 16.1428 19.7548 15.9058 20.0472 15.9058C20.3396 15.9058 20.5766 16.1428 20.5766 16.4352C20.5766 16.7276 20.3396 16.9646 20.0472 16.9646Z" fill="#008643"/>
</g>
<defs>
<clipPath id="clip0_13_3234">
<rect width="18.0706" height="18.0706" fill="white" transform="translate(6.77637 6.87012)"/>
</clipPath>
</defs>
</svg>
