<svg width="32" height="32" viewBox="0 0 32 32" fill="none" xmlns="http://www.w3.org/2000/svg">
    <rect width="32" height="32" rx="16" fill="#F3E6FA" />
    <path
        d="M20.8463 14.1239L19.754 14.5651C19.6134 14.6221 19.4656 14.6509 19.315 14.6509C18.9922 14.6509 18.68 14.5147 18.4591 14.2772C18.2393 14.0414 18.1258 13.7208 18.1485 13.3981L18.231 12.2233L17.4731 11.322C17.3048 11.1216 17.2207 10.8763 17.209 10.625H10.027C8.72602 10.625 7.66309 11.6879 7.66309 12.9945V19.5826C7.66309 20.8891 8.72602 21.9465 10.027 21.9465H11.8263L11.7875 23.0482C11.7764 23.4966 12.0145 23.9063 12.4131 24.1167C12.5847 24.2053 12.7674 24.2496 12.9556 24.2496C13.1992 24.2496 13.4428 24.1665 13.6477 24.0115L16.3936 21.9465H19.5602C20.8612 21.9465 21.9242 20.8891 21.9242 19.5826V14.5596L20.8463 14.1239ZM15.0688 18.0435H12.1629C11.8877 18.0435 11.6646 17.8204 11.6646 17.5452C11.6646 17.2701 11.8877 17.047 12.1629 17.047H15.0688C15.3439 17.047 15.567 17.2701 15.567 17.5452C15.567 17.8204 15.3439 18.0435 15.0688 18.0435ZM17.6447 15.5267H12.164C11.8888 15.5267 11.6657 15.3036 11.6657 15.0285C11.6657 14.7533 11.8888 14.5302 12.164 14.5302H17.6447C17.9199 14.5302 18.143 14.7533 18.143 15.0285C18.143 15.3036 17.9199 15.5267 17.6447 15.5267Z"
        fill="#8A00CA" />
    <path
        d="M21.1345 8.58979L21.9367 9.87363L23.4054 10.2396C23.649 10.3005 23.7448 10.595 23.5837 10.7877L22.6104 11.9469L22.7162 13.4567C22.7339 13.7069 22.4831 13.8896 22.25 13.7955L20.8466 13.228L19.4432 13.7955C19.2107 13.8896 18.9594 13.7074 18.9771 13.4567L19.0828 11.9469L18.1096 10.7877C17.9479 10.5956 18.0442 10.3005 18.2878 10.2396L19.7566 9.87363L20.5587 8.58979C20.6911 8.37665 21.0016 8.37665 21.1345 8.58979Z"
        fill="#8A00CA" />
</svg>