<svg width="15" height="14" viewBox="0 0 15 14" fill="none" xmlns="http://www.w3.org/2000/svg">
    <path
        d="M3 2.5C3 1.67157 3.67157 1 4.5 1C5.32843 1 6 1.67157 6 2.5C6 3.32843 5.32843 4 4.5 4C3.67157 4 3 3.32843 3 2.5ZM4.5 0C3.11929 0 2 1.11929 2 2.5C2 3.88071 3.11929 5 4.5 5C5.88071 5 7 3.88071 7 2.5C7 1.11929 5.88071 0 4.5 0ZM9.5 3C9.5 2.44772 9.94771 2 10.5 2C11.0523 2 11.5 2.44772 11.5 3C11.5 3.55228 11.0523 4 10.5 4C9.94771 4 9.5 3.55228 9.5 3ZM8.9225 4.22957C9.4222 4.08022 9.95173 4 10.5 4C11.0483 4 11.5778 4.08022 12.0775 4.22957C12.3423 3.89039 12.5 3.46362 12.5 3C12.5 1.89543 11.6046 1 10.5 1C9.39543 1 8.5 1.89543 8.5 3C8.5 3.46362 8.65775 3.89039 8.9225 4.22957ZM2 6H6.25716C6.00353 6.30711 5.78261 6.64222 5.59971 7H2C1.72386 7 1.5 7.22386 1.5 7.5V7.58971L1.50027 7.59656C1.50071 7.60562 1.50175 7.62229 1.50416 7.64547C1.50899 7.69201 1.51921 7.76366 1.54061 7.85193C1.58359 8.02922 1.66982 8.26622 1.84187 8.50279C2.16787 8.95105 2.87788 9.5 4.5 9.5C4.67735 9.5 4.8438 9.49344 5.00003 9.48116L5 9.5C5 9.83352 5.02969 10.1601 5.08656 10.4772C4.90076 10.4922 4.70539 10.5 4.5 10.5C2.62212 10.5 1.58213 9.84583 1.03313 9.09096C0.767679 8.72596 0.635158 8.36141 0.568763 8.08753C0.535473 7.95021 0.518349 7.83386 0.509513 7.74881C0.505086 7.7062 0.502711 7.67118 0.501441 7.64499C0.500806 7.63188 0.500446 7.62096 0.500244 7.61238L0.500047 7.60127L0.50001 7.59705L0.500002 7.59529L0.5 7.59375V7.5C0.5 6.67157 1.17157 6 2 6ZM15 9.5C15 11.9853 12.9853 14 10.5 14C8.01472 14 6 11.9853 6 9.5C6 7.01472 8.01472 5 10.5 5C12.9853 5 15 7.01472 15 9.5ZM11 7.5C11 7.22386 10.7761 7 10.5 7C10.2239 7 10 7.22386 10 7.5V9H8.5C8.22386 9 8 9.22386 8 9.5C8 9.77614 8.22386 10 8.5 10H10V11.5C10 11.7761 10.2239 12 10.5 12C10.7761 12 11 11.7761 11 11.5V10H12.5C12.7761 10 13 9.77614 13 9.5C13 9.22386 12.7761 9 12.5 9H11V7.5Z"
        fill="#575757" />
</svg>