<svg width="13" height="12" viewBox="0 0 13 12" fill="none" xmlns="http://www.w3.org/2000/svg">
    <path
        d="M4.80002 6.99991C5.1314 6.99991 5.40002 6.73128 5.40002 6.39991C5.40002 6.06853 5.1314 5.79991 4.80002 5.79991C4.46865 5.79991 4.20002 6.06853 4.20002 6.39991C4.20002 6.73128 4.46865 6.99991 4.80002 6.99991ZM6.80002 0.799905C6.80002 0.683265 6.74911 0.572435 6.66062 0.496445C6.57213 0.420454 6.45488 0.386873 6.33958 0.404498L0.739584 1.2605C0.544277 1.29035 0.400024 1.45833 0.400024 1.65591V10.3439C0.400024 10.5415 0.544246 10.7094 0.739527 10.7393L6.33953 11.5961C6.45484 11.6138 6.5721 11.5802 6.6606 11.5042C6.7491 11.4282 6.80002 11.3174 6.80002 11.2007V5.99992L10.9378 5.99992L10.1403 6.69888C9.97432 6.84435 9.9575 7.09706 10.1027 7.26331C10.248 7.42957 10.5003 7.44641 10.6662 7.30094L12.2636 5.90094C12.3503 5.82499 12.4 5.71526 12.4 5.59991C12.4 5.48457 12.3503 5.37483 12.2636 5.29888L10.6662 3.89888C10.5003 3.75341 10.248 3.77025 10.1027 3.93651C9.9575 4.10276 9.97432 4.35547 10.1403 4.50094L10.9378 5.19992L6.80002 5.19992V0.799905ZM6.00002 1.26569V10.7349L1.20002 10.0005V1.99941L6.00002 1.26569ZM8.00002 10.7999H7.60002V6.79991H8.40002V10.3999C8.40002 10.6208 8.22094 10.7999 8.00002 10.7999ZM7.60002 4.39991V1.19991H8.00002C8.22094 1.19991 8.40002 1.37899 8.40002 1.59991V4.39991H7.60002Z"
        fill="#FC465D" />
</svg>