<svg width="20" height="20" viewBox="0 0 20 20" fill="none" xmlns="http://www.w3.org/2000/svg">
    <path
        d="M1.6665 5.83333C1.6665 4.66656 1.6665 4.08317 1.89357 3.63752C2.09331 3.24552 2.41202 2.92681 2.80402 2.72707C3.24967 2.5 3.83306 2.5 4.99984 2.5C6.16661 2.5 6.75 2.5 7.19565 2.72707C7.58766 2.92681 7.90637 3.24552 8.1061 3.63752C8.33317 4.08317 8.33317 4.66656 8.33317 5.83333V14.1667C8.33317 15.3334 8.33317 15.9168 8.1061 16.3625C7.90637 16.7545 7.58766 17.0732 7.19565 17.2729C6.75 17.5 6.16661 17.5 4.99984 17.5C3.83306 17.5 3.24967 17.5 2.80402 17.2729C2.41202 17.0732 2.09331 16.7545 1.89357 16.3625C1.6665 15.9168 1.6665 15.3334 1.6665 14.1667V5.83333Z"
        stroke="#0992E2" strokeWidth="0.875" stroke-linecap="round" stroke-linejoin="round" />
    <path d="M4.99988 14.1666H5.00736" stroke="#0992E2" strokeWidth="1.16667"
        stroke-linecap="round" stroke-linejoin="round" />
    <path d="M1.6665 5.83337H8.33317" stroke="#0992E2" strokeWidth="0.875" stroke-linecap="round"
        stroke-linejoin="round" />
    <path
        d="M9.54036 6.89036C9.24461 5.78198 9.09673 5.2278 9.19858 4.74666C9.28816 4.32344 9.50887 3.93956 9.82908 3.65004C10.1931 3.3209 10.745 3.17241 11.8487 2.87542C12.9525 2.57843 13.5044 2.42994 13.9835 2.53221C14.405 2.62217 14.7873 2.8438 15.0756 3.16534C15.4034 3.53089 15.5512 4.08507 15.847 5.19344L17.9593 13.1096C18.2551 14.218 18.4029 14.7722 18.3011 15.2533C18.2115 15.6766 17.9908 16.0604 17.6706 16.35C17.3066 16.6791 16.7547 16.8276 15.6509 17.1246C14.5472 17.4216 13.9953 17.5701 13.5161 17.4678C13.0947 17.3778 12.7124 17.1562 12.4241 16.8347C12.0963 16.4691 11.9484 15.9149 11.6527 14.8066L9.54036 6.89036Z"
        stroke="#0992E2" strokeWidth="0.875" stroke-linecap="round" stroke-linejoin="round" />
    <path d="M14.8175 13.9127L14.8247 13.9108" stroke="#0992E2" strokeWidth="1.16667"
        stroke-linecap="round" stroke-linejoin="round" />
    <path d="M9.99976 6.66694L15.4165 5.00012" stroke="#0992E2" strokeWidth="0.875"
        stroke-linecap="round" stroke-linejoin="round" />
</svg>