<svg width="16" height="16" viewBox="0 0 16 16" fill="none" xmlns="http://www.w3.org/2000/svg">
    <path
        d="M3.66626 12.3329V10.3329C3.66496 9.64754 3.82695 8.97171 4.13881 8.36138C4.45066 7.75105 4.90342 7.2238 5.45959 6.82326C5.08452 6.38392 4.83084 5.85415 4.72372 5.28651C4.6166 4.71886 4.65976 4.13307 4.84893 3.58726C4.36359 3.32835 3.79789 3.26395 3.26678 3.40715C2.73567 3.55035 2.27901 3.8904 1.98962 4.3582C1.70022 4.82599 1.5998 5.38643 1.70877 5.9256C1.81774 6.46478 2.12791 6.94223 2.57626 7.26093C2.00953 7.50655 1.52687 7.91235 1.18756 8.42848C0.848254 8.9446 0.667069 9.54859 0.66626 10.1663V11.6663C0.666789 12.1081 0.842554 12.5317 1.155 12.8442C1.46745 13.1566 1.89106 13.3324 2.33293 13.3329H3.89459C3.74474 13.0208 3.66672 12.6791 3.66626 12.3329Z"
        fill="#757575" />
    <path
        d="M13.4235 7.26093C13.8718 6.94223 14.182 6.46478 14.291 5.9256C14.4 5.38643 14.2995 4.82599 14.0101 4.3582C13.7207 3.8904 13.2641 3.55035 12.733 3.40715C12.2019 3.26395 11.6362 3.32835 11.1508 3.58726C11.34 4.13307 11.3832 4.71886 11.276 5.28651C11.1689 5.85415 10.9152 6.38392 10.5402 6.82326C11.0963 7.2238 11.5491 7.75105 11.8609 8.36138C12.1728 8.97171 12.3348 9.64754 12.3335 10.3329V12.3329C12.333 12.6791 12.255 13.0208 12.1052 13.3329H13.6668C14.1087 13.3324 14.5323 13.1566 14.8448 12.8442C15.1572 12.5317 15.333 12.1081 15.3335 11.6663V10.1663C15.3327 9.54859 15.1515 8.9446 14.8122 8.42848C14.4729 7.91235 13.9902 7.50655 13.4235 7.26093Z"
        fill="#757575" />
    <path
        d="M9.38607 6.94066C9.88318 6.63833 10.2678 6.18172 10.4812 5.64046C10.6946 5.0992 10.7252 4.50299 10.5682 3.94275C10.4112 3.38251 10.0753 2.88899 9.61168 2.53744C9.14808 2.18589 8.58222 1.99561 8.00041 1.99561C7.41859 1.99561 6.85274 2.18589 6.38914 2.53744C5.92554 2.88899 5.58963 3.38251 5.43264 3.94275C5.27566 4.50299 5.30621 5.0992 5.51963 5.64046C5.73305 6.18172 6.11764 6.63833 6.61474 6.94066C5.94095 7.21621 5.36432 7.6859 4.95816 8.29001C4.55199 8.89412 4.33464 9.60537 4.33374 10.3333V12.3333C4.33427 12.7752 4.51003 13.1988 4.82248 13.5113C5.13493 13.8237 5.55854 13.9995 6.00041 14H10.0004C10.4423 13.9995 10.8659 13.8237 11.1783 13.5113C11.4908 13.1988 11.6665 12.7752 11.6671 12.3333V10.3333C11.6662 9.60537 11.4488 8.89412 11.0427 8.29001C10.6365 7.6859 10.0599 7.21621 9.38607 6.94066Z"
        fill="#757575" />
</svg>