<svg width="20" height="20" viewBox="0 0 20 20" fill="none" xmlns="http://www.w3.org/2000/svg">
    <path
        d="M11.8088 17.4088C15.2946 17.1771 18.0713 14.3611 18.2998 10.8258C18.3445 10.1339 18.3445 9.41748 18.2998 8.72564C18.0713 5.19035 15.2946 2.37432 11.8088 2.1426C10.6196 2.06355 9.37793 2.06371 8.19112 2.1426C4.70528 2.37432 1.92863 5.19035 1.70016 8.72564C1.65545 9.41748 1.65545 10.1339 1.70016 10.8258C1.78337 12.1134 2.35282 13.3055 3.02322 14.3122C3.41247 15.017 3.15558 15.8966 2.75014 16.6649C2.4578 17.2189 2.31163 17.4959 2.42899 17.696C2.54636 17.8961 2.80851 17.9024 3.33281 17.9152C4.36968 17.9404 5.06886 17.6465 5.62386 17.2372C5.93863 17.0051 6.09602 16.8891 6.20449 16.8757C6.31296 16.8624 6.52643 16.9503 6.9533 17.1261C7.33696 17.2841 7.78243 17.3816 8.19112 17.4088C9.37793 17.4877 10.6196 17.4879 11.8088 17.4088Z"
        stroke="#FC465D" stroke-linejoin="round" />
    <path
        d="M8.75 7.9488C8.75 7.24074 9.30964 6.66675 10 6.66675C10.6904 6.66675 11.25 7.24074 11.25 7.9488C11.25 8.20402 11.1773 8.44183 11.0519 8.64161C10.6784 9.23705 10 9.80484 10 10.5129V10.8334"
        stroke="#FC465D" stroke-linecap="round" />
    <path d="M10 12.5H10.0075" stroke="#FC465D" stroke-linecap="round" stroke-linejoin="round" />
</svg>