<svg width="20" height="20" viewBox="0 0 20 20" fill="none" xmlns="http://www.w3.org/2000/svg">
    <path
        d="M12.3546 4.47963C14.6881 2.81726 16.5939 2.07863 17.2576 2.74237C17.9214 3.40611 17.1827 5.31187 15.5204 7.64543M4.47963 12.3546C2.81726 14.6881 2.07863 16.5939 2.74237 17.2576C3.40611 17.9214 5.31187 17.1827 7.64543 15.5204M15.5204 7.64543C14.5767 8.97009 13.3354 10.4326 11.884 11.884C10.4326 13.3354 8.97009 14.5767 7.64543 15.5204M15.5204 7.64543C15.8291 8.36835 16 9.16422 16 10C16 13.3137 13.3137 16 10 16C9.16422 16 8.36835 15.8291 7.64543 15.5204M14.2426 5.75736C13.1569 4.67157 11.6569 4 10 4C6.68629 4 4 6.68629 4 10C4 11.6569 4.67157 13.1569 5.75736 14.2426"
        stroke="#8A00CA" stroke-linecap="round" stroke-linejoin="round" />
</svg>