<svg width="20" height="20" viewBox="0 0 20 20" fill="none" xmlns="http://www.w3.org/2000/svg">
    <path d="M1.66675 8.75V17.0833H5.83341V8.75H1.66675Z" stroke="#575757" strokeWidth="1.25"
        stroke-linecap="round" stroke-linejoin="round" />
    <path
        d="M11.6666 2.91666L12.1085 2.47471C11.9911 2.35724 11.8316 2.29137 11.6655 2.29166C11.4994 2.29195 11.3402 2.35837 11.2231 2.47625L11.6666 2.91666ZM5.83325 8.79059L5.38978 8.35019C5.27351 8.46727 5.20825 8.62558 5.20825 8.79059H5.83325ZM15.8333 17.0833L15.8333 17.7083L16.2976 17.7083L16.4317 17.2637L15.8333 17.0833ZM5.83325 17.0833H5.20825C5.20825 17.4285 5.48807 17.7083 5.83325 17.7083L5.83325 17.0833ZM18.3333 8.79059L18.9317 8.97099C18.9887 8.78169 18.9529 8.57655 18.8349 8.41785C18.717 8.25914 18.531 8.16559 18.3333 8.16559V8.79059ZM12.0833 8.79059L11.4841 8.61259L11.2456 9.41559H12.0833V8.79059ZM13.3333 4.58332L13.9324 4.76132C13.9977 4.54149 13.9374 4.30354 13.7752 4.14138L13.3333 4.58332ZM11.2231 2.47625L5.38978 8.35019L6.27672 9.231L12.1101 3.35706L11.2231 2.47625ZM15.8333 16.4583L5.83325 16.4583L5.83325 17.7083L15.8333 17.7083L15.8333 16.4583ZM16.4317 17.2637L18.9317 8.97099L17.7349 8.61019L15.2349 16.9029L16.4317 17.2637ZM18.3333 8.16559H12.0833V9.41559H18.3333V8.16559ZM12.6824 8.96859L13.9324 4.76132L12.7341 4.40532L11.4841 8.61259L12.6824 8.96859ZM13.7752 4.14138L12.1085 2.47471L11.2246 3.3586L12.8913 5.02526L13.7752 4.14138ZM6.45825 17.0833V8.79059H5.20825V17.0833H6.45825Z"
        fill="#575757" />
</svg>