<svg width="7" height="7" viewBox="0 0 7 7" fill="none" xmlns="http://www.w3.org/2000/svg">
    <path fill-rule="evenodd" clipRule="evenodd"
        d="M6.7416 1.16505C6.83513 1.01815 6.86646 0.840121 6.82872 0.670119C6.79098 0.500117 6.68725 0.352071 6.54035 0.258549C6.39346 0.165027 6.21543 0.13369 6.04542 0.171432C5.87542 0.209173 5.72738 0.312902 5.63385 0.459799L3.06398 4.49792L1.88798 3.02792C1.77926 2.89193 1.62097 2.8047 1.44793 2.78542C1.27489 2.76614 1.10128 2.81639 0.965291 2.92511C0.829301 3.03383 0.742071 3.19212 0.72279 3.36516C0.703509 3.5382 0.753757 3.71181 0.862479 3.8478L2.61248 6.0353C2.6777 6.11693 2.76146 6.1818 2.85681 6.22453C2.95216 6.26725 3.05633 6.2866 3.16065 6.28095C3.26498 6.2753 3.36646 6.24482 3.45663 6.19205C3.54681 6.13928 3.62308 6.06574 3.6791 5.97755L6.7416 1.16505V1.16505Z"
        fill="white" />
</svg>