<svg width="32" height="32" viewBox="0 0 32 32" fill="none" xmlns="http://www.w3.org/2000/svg">
    <rect width="32" height="32" rx="16" fill="#FFF2E6" />
    <path
        d="M20.846 14.1239L19.7538 14.5651C19.6132 14.6221 19.4653 14.6509 19.3148 14.6509C18.992 14.6509 18.6798 14.5147 18.4589 14.2772C18.2391 14.0414 18.1256 13.7208 18.1483 13.3981L18.2308 12.2233L17.4729 11.322C17.3046 11.1216 17.2204 10.8763 17.2088 10.625H10.0268C8.72578 10.625 7.66284 11.6879 7.66284 12.9945V19.5826C7.66284 20.8891 8.72578 21.9465 10.0268 21.9465H11.826L11.7873 23.0482C11.7762 23.4966 12.0142 23.9063 12.4128 24.1167C12.5845 24.2053 12.7672 24.2496 12.9554 24.2496C13.199 24.2496 13.4426 24.1665 13.6474 24.0115L16.3933 21.9465H19.56C20.861 21.9465 21.9239 20.8891 21.9239 19.5826V14.5596L20.846 14.1239ZM15.0685 18.0435H12.1626C11.8875 18.0435 11.6644 17.8204 11.6644 17.5452C11.6644 17.2701 11.8875 17.047 12.1626 17.047H15.0685C15.3437 17.047 15.5668 17.2701 15.5668 17.5452C15.5668 17.8204 15.3437 18.0435 15.0685 18.0435ZM17.6445 15.5267H12.1637C11.8886 15.5267 11.6655 15.3036 11.6655 15.0285C11.6655 14.7533 11.8886 14.5302 12.1637 14.5302H17.6445C17.9196 14.5302 18.1428 14.7533 18.1428 15.0285C18.1428 15.3036 17.9196 15.5267 17.6445 15.5267Z"
        fill="#FF8000" />
    <path
        d="M21.134 8.58979L21.9362 9.87363L23.4049 10.2396C23.6485 10.3005 23.7443 10.595 23.5832 10.7877L22.61 11.9469L22.7157 13.4567C22.7334 13.7069 22.4826 13.8896 22.2495 13.7955L20.8461 13.228L19.4427 13.7955C19.2102 13.8896 18.9589 13.7074 18.9766 13.4567L19.0823 11.9469L18.1091 10.7877C17.9474 10.5956 18.0437 10.3005 18.2873 10.2396L19.7561 9.87363L20.5583 8.58979C20.6906 8.37665 21.0012 8.37665 21.134 8.58979Z"
        fill="#FF8000" />
</svg>