<svg width="32" height="32" viewBox="0 0 32 32" fill="none" xmlns="http://www.w3.org/2000/svg">
    <rect width="32" height="32" rx="16" fill="#FFF6EA" />
    <path
        d="M18.7848 14.8531L16.1568 11.0497C16.1394 11.0242 16.1159 11.0034 16.0886 10.989C16.0612 10.9746 16.0307 10.967 15.9998 10.967C15.9689 10.967 15.9384 10.9746 15.9111 10.989C15.8837 11.0034 15.8603 11.0242 15.8428 11.0497L13.2149 14.8531C13.1897 14.8898 13.1525 14.9165 13.1097 14.9287C13.0669 14.9409 13.0212 14.9378 12.9805 14.9199L9.25157 13.2634C9.21828 13.2488 9.18151 13.2439 9.14556 13.2494C9.10962 13.2549 9.07598 13.2705 9.04857 13.2944C9.02117 13.3183 9.00113 13.3496 8.9908 13.3844C8.98047 13.4193 8.98028 13.4564 8.99025 13.4913L11.1524 20.8953C11.1639 20.935 11.188 20.9699 11.2211 20.9947C11.2542 21.0195 11.2944 21.0329 11.3358 21.0329H20.6645C20.7058 21.0329 20.7461 21.0195 20.7791 20.9947C20.8122 20.9699 20.8363 20.935 20.8479 20.8953L23.01 13.4913C23.0199 13.4564 23.0197 13.4193 23.0094 13.3844C22.9991 13.3496 22.9791 13.3183 22.9516 13.2944C22.9242 13.2705 22.8906 13.2549 22.8547 13.2494C22.8187 13.2439 22.7819 13.2488 22.7486 13.2634L19.0197 14.9199C18.9789 14.9376 18.9332 14.9406 18.8903 14.9284C18.8475 14.9163 18.8102 14.8896 18.7848 14.8531Z"
        fill="#FF8000" />
</svg>