<svg width="16" height="16" viewBox="0 0 16 16" fill="none" xmlns="http://www.w3.org/2000/svg">
    <g clip-path="url(#clip0_6_2345)">
        <path
            d="M14.6442 3.54909L14.4048 3.62497L13.13 3.73855L12.77 4.31354L12.5087 4.23053L11.4942 3.31583L11.347 2.84015L11.1499 2.33289L10.5123 1.76096L9.76004 1.61377L9.74272 1.95805L10.4797 2.67718L10.8403 3.10193L10.4349 3.3138L10.1048 3.21652L9.61031 3.01026L9.62711 2.61148L8.97827 2.34461L8.76284 3.28222L8.10891 3.43042L8.17359 3.95347L9.02564 4.11746L9.17282 3.28171L9.87616 3.38561L10.2031 3.5771H10.7277L11.0868 4.29622L12.0386 5.26185L11.9689 5.6372L11.2013 5.53941L9.87514 6.20914L8.92021 7.35454L8.79595 7.8618H8.45319L7.81453 7.56742L7.19421 7.8618L7.34853 8.51624L7.61846 8.20506L8.09312 8.19029L8.06001 8.77802L8.45319 8.89312L8.84586 9.33417L9.48706 9.15388L10.2194 9.26949L11.0699 9.49816L11.4947 9.54807L12.2148 10.3655L13.6047 11.1829L12.7058 12.9002L11.757 13.3413L11.3969 14.3227L10.0239 15.2394L9.87769 15.7681C13.3877 14.9227 15.9989 11.7696 15.9989 7.99981C15.9979 6.35327 15.4988 4.8208 14.6442 3.54909Z"
            fill="#757575" />
        <path
            d="M8.91936 12.1807L8.33673 11.1005L8.87148 9.98618L8.33673 9.82626L7.73627 9.22326L6.40599 8.92481L5.96443 8.00095V8.54946H5.76988L4.62346 6.99509V5.71829L3.78312 4.35185L2.44877 4.58969H1.54986L1.09761 4.29328L1.67464 3.83594L1.09914 3.96886C0.405479 5.15348 0.00109863 6.52807 0.00109863 8.00044C0.00109863 12.4176 3.58195 15.9999 7.99957 15.9999C8.33978 15.9999 8.67337 15.9699 9.00339 15.9302L8.91987 14.961C8.91987 14.961 9.28707 13.5217 9.28707 13.4728C9.28656 13.4234 8.91936 12.1807 8.91936 12.1807Z"
            fill="#757575" />
        <path
            d="M2.97355 2.57958L4.39448 2.38146L5.04943 2.02241L5.78638 2.23478L6.96387 2.1696L7.36723 1.53552L7.95547 1.63229L9.38404 1.49834L9.77772 1.06443L10.3329 0.693659L11.1182 0.811816L11.4044 0.768526C10.37 0.28164 9.21903 0 7.99927 0C5.51645 0 3.29644 1.13165 1.83069 2.90858H1.83476L2.97355 2.57958ZM8.33744 0.795518L9.15435 0.345811L9.67892 0.648841L8.91956 1.22689L8.19432 1.29972L7.86787 1.08785L8.33744 0.795518ZM5.91778 0.861217L6.27836 1.01146L6.75047 0.861217L7.00767 1.30685L5.91778 1.59307L5.39371 1.28648C5.39371 1.28648 5.90606 0.956455 5.91778 0.861217Z"
            fill="#757575" />
    </g>
    <defs>
        <clipPath id="clip0_6_2345">
            <rect width="16" height="16" fill="white" />
        </clipPath>
    </defs>
</svg>