<svg id="Layer_2" data-name="Layer 2" xmlns="http://www.w3.org/2000/svg" viewBox="0 0 344.64 430.88"><defs><style>.cls-1{fill:#dee570;}.cls-2{fill:#200c0d;}.cls-3,.cls-4{fill:none;stroke-miterlimit:10;}.cls-3{stroke:#ef3824;strokeWidth:9px;}.cls-4{stroke:#059748;strokeWidth:5px;}</style></defs><path class="cls-1" d="M478.32,457.18a197.11,197.11,0,0,1-344.64,0,172.86,172.86,0,0,0,344.64,0Z" transform="translate(-133.68 -185.55)"/><path class="cls-2" d="M210.5,420.27l18.67,5.09c-10.36,28.68-20.54,56.86-30.71,85l-1.53-.5,4.39-14.54c-5.42-1.9-4.47-6.14-3.64-10.44q5.79-29.91,11.5-59.82C209.46,423.66,210,422.25,210.5,420.27Z" transform="translate(-133.68 -185.55)"/><path class="cls-2" d="M397.83,420.27l-18.68,5.09,30.72,85,1.52-.5c-1.42-4.7-2.83-9.4-4.39-14.54,5.42-1.9,4.48-6.14,3.65-10.44Q404.86,455,399.14,425.1C398.87,423.66,398.37,422.25,397.83,420.27Z" transform="translate(-133.68 -185.55)"/><path class="cls-2" d="M415.07,464.84l-4.38,1.45c-1.56-7.51-3-14.6-4.65-22.38l4.55-.63" transform="translate(-133.68 -185.55)"/><path class="cls-2" d="M303.5,542.63" transform="translate(-133.68 -185.55)"/><path class="cls-2" d="M303.5,175.57" transform="translate(-133.68 -185.55)"/><path class="cls-2" d="M270.72,309.2c5-14.1,9.78-27.64,14.8-41.08.44-1.2,2.66-2.42,4.08-2.46,5-.14,9.12-.19,14.12-.15s10,0,15,.15c1.42,0,3.63,1.26,4.08,2.46,5,13.43,9.77,27,14.79,41.06l4.32,11.71c11.11,31.55,22.44,63,33.71,94.51.61,1.69,1.35,3.34,2.22,5.47l19.43-5.13c-3.3-10.34-6.1-20.55-9.8-30.42-15.89-42.37-32-84.65-48.13-126.94-1.77-4.67-3.61-9.31-5.65-13.86-2.16-4.81-4.12-5.44-9-3.32-1.81.8-3.56,1.7-5.24,2.51,0,22.33-30.65,22.33-30.65,0-1.68-.81-3.44-1.71-5.24-2.51-4.85-2.12-6.81-1.49-9,3.32-2.05,4.55-3.88,9.19-5.65,13.86-16.09,42.29-32.24,84.57-48.13,126.94-3.7,9.87-6.5,20.08-9.8,30.42l19.43,5.13c.86-2.13,1.61-3.78,2.21-5.47,11.28-31.49,22.61-63,33.71-94.51C266.52,320.56,270.59,309.5,270.72,309.2Z" transform="translate(-133.68 -185.55)"/><circle class="cls-2" cx="170.48" cy="60.05" r="10.79"/><rect class="cls-2" x="165.92" y="6.43" width="9.12" height="44.76"/><circle class="cls-2" cx="170.48" cy="4.96" r="4.96"/><path class="cls-3" d="M204.41,358.86c5.17,12,16.72,46.85,45.62,46.85,25.32,0,42.83-29.14,56-47.29s30.65-47.3,56-47.3c28.9,0,40.45,34.88,45.62,46.85" transform="translate(-133.68 -185.55)"/><line class="cls-4" x1="59.1" y1="172.98" x2="285.53" y2="172.98"/></svg>