<svg width="41" height="50" viewBox="0 0 41 50" fill="none" xmlns="http://www.w3.org/2000/svg">
    <g clip-path="url(#clip0_409_8776)">
        <path
            d="M9.45612 49.3902C9.7914 49.6395 10.2556 49.5707 10.4964 49.244C12.7144 46.2437 18.6549 47.0346 21.7326 42.8823C24.071 39.7272 22.1109 35.1278 20.9847 34.0876C20.9503 34.0446 20.9073 34.0102 20.8729 33.9844C20.5376 33.7351 20.0734 33.8039 19.8327 34.1306C19.7037 34.3111 19.6607 34.5346 19.7123 34.7581C19.9358 35.6006 20.0304 37.6381 19.1707 38.7987C17.7608 40.6986 15.4396 40.0625 15.4396 40.0625C18.5947 37.9562 15.474 35.1106 16.9011 31.7664C17.0387 31.4483 16.9441 31.0786 16.6604 30.8637C16.5314 30.7691 16.3767 30.7176 16.2219 30.7176C16.2047 30.7176 16.1876 30.7176 16.1704 30.7176C16.0242 30.709 12.2845 30.4854 9.69684 33.9672C8.63941 35.3943 7.55619 38.3689 7.27249 39.8389C7.19512 40.1312 7.30688 40.4493 7.55619 40.6299C7.84849 40.8448 8.24395 40.8276 8.51046 40.5869C8.51046 40.5869 9.68824 39.581 11.1153 39.6068C9.04347 42.4008 8.9575 46.8025 9.15523 48.7884C9.15523 48.8228 9.15523 48.8572 9.15523 48.8916C9.18102 49.0893 9.29278 49.2698 9.45612 49.3902Z"
            fill="#AB475F" />
        <path
            d="M9.90287 50.0003C9.65356 50.0003 9.39565 49.9229 9.18073 49.7596C8.92282 49.5619 8.74228 49.2696 8.6993 48.9515C8.6993 48.9085 8.6907 48.8569 8.6907 48.8139C8.63052 48.1777 8.27805 43.6042 10.178 40.2084C9.44723 40.4319 8.90562 40.8617 8.81965 40.9305C8.3984 41.326 7.74503 41.3603 7.2808 41.0079C6.88534 40.7156 6.7048 40.2256 6.82516 39.7527V39.7097C7.13465 38.1967 8.21787 35.1963 9.33547 33.6833C11.9747 30.1155 15.8004 30.2273 16.1873 30.2445C16.2045 30.2445 16.2216 30.2445 16.2388 30.2445C16.4968 30.2445 16.7375 30.3304 16.9438 30.4852C17.2963 30.7431 17.4682 31.1557 17.4338 31.5684L17.4768 31.6028L17.3393 31.9381C16.7805 33.2448 16.9868 34.4914 17.1931 35.6949C17.4252 37.0619 17.6573 38.4718 16.5827 39.6925C17.2619 39.6496 18.156 39.4088 18.8179 38.5148C19.5659 37.5089 19.4885 35.6434 19.2822 34.8696L19.222 34.6547L19.2392 34.6289C19.222 34.3538 19.308 34.0787 19.4713 33.8552C19.8668 33.3222 20.6233 33.2104 21.1563 33.6145C21.2165 33.6575 21.2767 33.709 21.3283 33.7692C21.9558 34.3624 22.7725 35.8583 23.125 37.6035C23.4259 39.1079 23.5033 41.2916 22.1192 43.1571C20.3654 45.5213 17.7433 46.3638 15.4307 47.1031C13.5738 47.6963 11.8114 48.2637 10.8829 49.5189C10.6508 49.837 10.2897 50.0003 9.92007 50.0003H9.90287ZM9.73093 49.0203C9.85989 49.1148 10.0318 49.089 10.1264 48.9687C11.2354 47.4728 13.1267 46.8624 15.1384 46.2262C17.4252 45.4955 19.7894 44.7304 21.3626 42.6155C23.5033 39.7269 21.6721 35.3597 20.6749 34.4398L20.6405 34.4054C20.6405 34.4054 20.6147 34.3796 20.5975 34.3624C20.4686 34.2678 20.2966 34.2936 20.202 34.414C20.1505 34.4828 20.1419 34.5601 20.1591 34.6461L20.2106 34.8352C20.4084 35.8153 20.4772 37.827 19.5487 39.0736C17.9668 41.2056 15.4307 40.535 15.3276 40.5092L14.3475 40.2427L15.19 39.6839C16.7375 38.6523 16.5483 37.4831 16.2732 35.8669C16.0755 34.6891 15.852 33.3652 16.3506 31.9381H16.3334L16.4796 31.5942C16.5311 31.4738 16.4882 31.3363 16.385 31.2503C16.3334 31.2159 16.2732 31.1987 16.2131 31.1901H16.1959H16.1701H16.1443C15.9981 31.1815 12.4992 30.9838 10.0748 34.2592C9.06037 35.6262 7.99434 38.5921 7.72784 39.9418V39.9934C7.69345 40.0966 7.73644 40.217 7.831 40.2771C7.93417 40.3545 8.07172 40.3545 8.16628 40.2771L8.20067 40.2427C8.25225 40.1998 9.5332 39.1251 11.115 39.1509L12.0091 39.1681L11.4761 39.8903C10.5734 41.1024 9.17213 44.3349 9.60198 48.7537V48.7967C9.60198 48.7967 9.60198 48.8225 9.60198 48.8311C9.61058 48.9085 9.65356 48.9773 9.71374 49.0289L9.73093 49.0203Z"
            fill="black" />
        <path
            d="M8.62313 40.2509C8.68331 40.1993 9.51721 39.5115 10.5918 39.3826C10.7552 39.3654 10.8669 39.5459 10.7724 39.6835C9.10456 42.2368 9.03578 45.9936 9.20772 47.7388C9.20772 47.7732 9.20772 47.799 9.20772 47.8334C9.23352 48.0139 9.37966 48.8049 9.52581 48.9166C9.82671 49.1401 10.205 48.461 10.4285 48.1601C12.4574 45.4262 17.8735 46.1398 20.6761 42.3571C22.8081 39.4857 21.02 35.2818 19.9969 34.3361C19.9625 34.3018 19.9282 34.2674 19.8938 34.2416C19.5929 34.0181 19.163 34.0782 18.9481 34.3791C18.8277 34.5425 18.7848 34.7488 18.8363 34.9465C19.0427 35.7117 19.1286 37.5686 18.3463 38.626C17.435 39.8554 16.1111 39.9242 15.4061 39.8554C15.2342 39.8382 15.1654 39.6233 15.303 39.5115C17.564 37.6202 15.0365 35.1271 16.2744 32.2127C16.4034 31.9204 16.3088 31.5851 16.0509 31.396C15.9392 31.31 15.793 31.267 15.6555 31.2584C15.6383 31.2584 15.6211 31.2584 15.6125 31.2584C15.4835 31.2498 12.0619 31.0435 9.70635 34.2244C8.74349 35.5225 7.93537 37.7835 7.67746 39.1247C7.67746 39.1247 7.45394 38.5401 7.51412 38.9785C7.5829 39.4857 7.35938 39.0301 7.35938 39.0387L7.76343 40.1305C7.92677 40.4486 8.35662 40.5174 8.61453 40.2767L8.62313 40.2509Z"
            fill="#FC465D" />
        <path
            d="M11.9935 44.8072C12.3288 45.0565 12.793 44.9877 13.0337 44.661C15.2517 41.6607 21.1922 42.4516 24.27 38.2993C26.6083 35.1442 24.6482 30.5448 23.522 29.5046C23.4876 29.4616 23.4446 29.4272 23.4103 29.4014C23.075 29.1521 22.6107 29.2209 22.37 29.5475C22.2411 29.7281 22.1981 29.9516 22.2497 30.1751C22.4732 31.0176 22.5678 33.0551 21.7081 34.2157C20.2982 36.1156 17.977 35.4795 17.977 35.4795C21.1321 33.3732 18.0114 30.5276 19.4385 27.1834C19.576 26.8653 19.4814 26.4956 19.1977 26.2807C19.0688 26.1861 18.914 26.1346 18.7593 26.1346C18.7421 26.1346 18.7249 26.1346 18.7077 26.1346C18.5616 26.126 14.8219 25.9024 12.2342 29.3842C11.1768 30.8113 10.0935 33.7859 9.80984 35.2559C9.73247 35.5482 9.84423 35.8663 10.0935 36.0469C10.3858 36.2618 10.7813 36.2446 11.0478 36.0039C11.0478 36.0039 12.2256 34.998 13.6527 35.0238C11.5808 37.8178 11.4949 42.2195 11.6926 44.2054C11.6926 44.2398 11.6926 44.2742 11.6926 44.3086C11.7184 44.5063 11.8301 44.6868 11.9935 44.8072Z"
            fill="black" />
        <path d="M34.9229 13.979L29.4106 10.3291L14.0613 33.5106L19.5736 37.1605L34.9229 13.979Z"
            fill="black" />
        <path
            d="M38.996 0.154297C38.996 0.205879 38.996 0.205879 38.996 0.154297L37.4486 6.00884L34.1646 3.80801L38.996 0.154297Z"
            fill="#030325" />
        <path d="M16.498 30.0115L13.7297 28.507L26.2469 9.87735L32.4883 6.22363L16.498 30.0115Z"
            fill="black" />
        <path d="M20.5737 32.6498L23.0325 34.6013L34.8791 15.6708L36.2116 8.62988L20.5737 32.6498Z"
            fill="black" />
        <path d="M35.1881 5.75098L17.8223 31.9803L15.6472 30.5361L29.6861 8.44183L35.1881 5.75098Z"
            fill="#0992E2" />
        <path d="M35.1698 11.4427L20.2283 34.0098L18.0532 32.5655L35.4191 6.34473L35.1698 11.4427Z"
            fill="#0992E2" />
        <mask id="mask0_409_8776" style="mask-type:luminance" maskUnits="userSpaceOnUse" x="26"
            y="3" width="12" height="13">
            <path
                d="M26.1013 10.0927L26.2475 9.8778L34.5951 3.44727C34.896 4.02326 35.3517 4.4961 35.9105 4.81418C36.4177 5.20965 37.0367 5.45036 37.6728 5.51054L34.8788 15.6722L34.7327 15.8871C34.3974 15.9473 34.0449 15.8785 33.7698 15.6808C32.8757 15.0876 33.4603 14.2193 32.5576 13.6261C31.655 13.0329 31.0962 13.884 30.2021 13.2908C29.308 12.6976 29.9012 11.8293 29.0071 11.2361C28.113 10.6429 27.537 11.5026 26.6515 10.9008C26.3678 10.7117 26.1701 10.4194 26.1099 10.0841L26.1013 10.0927Z"
                fill="white" />
        </mask>
        <g mask="url(#mask0_409_8776)">
            <path d="M33.7604 15.9468L32.4795 15.0871L37.6721 7.3584V15.9468H33.7604Z"
                fill="#EBD9B3" />
            <path d="M32.4796 15.0875L32.428 15.0531L37.6721 7.24707V7.35883L32.4796 15.0875Z"
                fill="#EBD9B3" />
            <path d="M32.429 15.0536L32.3774 15.0192L37.6732 7.13574V7.2475L32.429 15.0536Z"
                fill="#EAD8B2" />
            <path d="M32.377 15.0194L32.3254 14.9764L37.6728 7.01562V7.13598L32.377 15.0194Z"
                fill="#E9D7B1" />
            <path d="M32.325 14.9749L32.2734 14.9405L37.6723 6.90234V7.0141L32.325 14.9749Z"
                fill="#E9D6B0" />
            <path d="M32.273 14.9419L32.2214 14.9075L37.6719 6.79199V6.90375L32.273 14.9419Z"
                fill="#E8D6AF" />
            <path d="M32.2227 14.907L32.1711 14.8726L37.6732 6.67969V6.79145L32.2227 14.907Z"
                fill="#E7D5AE" />
            <path d="M32.1708 14.8721L32.1106 14.8377L37.6728 6.56738V6.67914L32.1708 14.8721Z"
                fill="#E6D4AD" />
            <path d="M32.1102 14.8381L32.0586 14.8037L37.6724 6.45605V6.56782L32.1102 14.8381Z"
                fill="#E5D3AC" />
            <path d="M32.0582 14.8041L32.0066 14.7698L37.672 6.34473V6.45649L32.0582 14.8041Z"
                fill="#E5D2AB" />
            <path d="M32.0076 14.7692L31.9561 14.7348L37.673 6.23242V6.34418L32.0076 14.7692Z"
                fill="#E4D1AA" />
            <path d="M31.9556 14.7351L31.9041 14.7007L37.6726 6.1123V6.23266L31.9556 14.7351Z"
                fill="#E3D0A9" />
            <path d="M31.9034 14.7011L31.8518 14.6667L37.672 6.00098V6.11274L31.9034 14.7011Z"
                fill="#E2CFA8" />
            <path d="M31.8531 14.6662L31.8015 14.6318L37.6732 5.88867V6.00043L31.8531 14.6662Z"
                fill="#E1CFA7" />
            <path d="M31.8011 14.6322L31.7495 14.5978L37.6728 5.77734V5.8891L31.8011 14.6322Z"
                fill="#E1CEA6" />
            <path d="M31.7491 14.5973L31.6975 14.5543L37.6724 5.66504V5.7768L31.7491 14.5973Z"
                fill="#E0CDA5" />
            <path d="M31.6968 14.5547L31.6453 14.5204L37.6717 5.55371V5.66547L31.6968 14.5547Z"
                fill="#DFCCA4" />
            <path d="M31.6468 14.5208L31.5952 14.4864L37.6733 5.44238V5.55414L31.6468 14.5208Z"
                fill="#DECBA3" />
            <path d="M31.5946 14.4857L31.543 14.4513L37.6726 5.32129V5.44165L31.5946 14.4857Z"
                fill="#DDCAA2" />
            <path
                d="M31.5425 14.4507L31.491 14.4163L37.6464 5.25195L37.6722 5.26915V5.32073L31.5425 14.4507Z"
                fill="#DDC9A1" />
            <path
                d="M37.5904 5.21533L31.4321 14.3867L31.4821 14.4203L37.6404 5.24888L37.5904 5.21533Z"
                fill="#DCC8A0" />
            <path
                d="M37.5418 5.17822L31.3835 14.3496L31.4335 14.3832L37.5918 5.21177L37.5418 5.17822Z"
                fill="#DBC89F" />
            <path
                d="M37.4847 5.14111L31.3264 14.3125L31.3764 14.346L37.5346 5.17466L37.4847 5.14111Z"
                fill="#DAC79E" />
            <path
                d="M37.4359 5.10498L31.2776 14.2764L31.3275 14.3099L37.4858 5.13853L37.4359 5.10498Z"
                fill="#D9C69D" />
            <path
                d="M37.3875 5.06884L31.2292 14.2402L31.2792 14.2738L37.4375 5.10239L37.3875 5.06884Z"
                fill="#D9C59C" />
            <path
                d="M37.3301 5.03174L31.1719 14.2031L31.2218 14.2367L37.3801 5.06528L37.3301 5.03174Z"
                fill="#D8C49B" />
            <path d="M37.2816 4.9956L31.1233 14.167L31.1733 14.2005L37.3315 5.02915L37.2816 4.9956Z"
                fill="#D7C39A" />
            <path
                d="M37.2327 4.96728L31.0745 14.1387L31.1244 14.1722L37.2827 5.00083L37.2327 4.96728Z"
                fill="#D6C299" />
            <path
                d="M37.1756 4.93115L31.0173 14.1025L31.0673 14.1361L37.2256 4.9647L37.1756 4.93115Z"
                fill="#D5C298" />
            <path
                d="M37.1204 4.88916L30.9622 14.0605L31.0121 14.0941L37.1704 4.9227L37.1204 4.88916Z"
                fill="#D5C197" />
            <path
                d="M37.0667 4.86084L30.9084 14.0322L30.9584 14.0658L37.1167 4.89438L37.0667 4.86084Z"
                fill="#D4C096" />
            <path
                d="M37.0179 4.82373L30.8596 13.9951L30.9096 14.0287L37.0679 4.85728L37.0179 4.82373Z"
                fill="#D3BF95" />
            <path d="M36.961 4.78662L30.8027 13.958L30.8527 13.9916L37.011 4.82017L36.961 4.78662Z"
                fill="#D2BE94" />
            <path
                d="M36.9117 4.75048L30.7534 13.9219L30.8034 13.9554L36.9617 4.78403L36.9117 4.75048Z"
                fill="#D1BD93" />
            <path
                d="M36.8633 4.72314L30.7051 13.8945L30.755 13.9281L36.9133 4.75669L36.8633 4.72314Z"
                fill="#D1BC92" />
            <path
                d="M36.8065 4.68603L30.6482 13.8574L30.6982 13.891L36.8564 4.71958L36.8065 4.68603Z"
                fill="#D0BB91" />
            <path
                d="M36.7576 4.6499L30.5994 13.8213L30.6493 13.8548L36.8076 4.68345L36.7576 4.6499Z"
                fill="#CFBB90" />
            <path
                d="M36.7091 4.61377L30.5508 13.7852L30.6007 13.8187L36.759 4.64732L36.7091 4.61377Z"
                fill="#CEBA8F" />
            <path
                d="M36.6502 4.57666L30.4919 13.748L30.5419 13.7816L36.7002 4.61021L36.6502 4.57666Z"
                fill="#CDB98E" />
            <path
                d="M36.6016 4.54052L30.4434 13.7119L30.4933 13.7455L36.6516 4.57407L36.6016 4.54052Z"
                fill="#CCB88D" />
            <path
                d="M36.5528 4.50439L30.3945 13.6758L30.4445 13.7093L36.6028 4.53794L36.5528 4.50439Z"
                fill="#CCB78C" />
            <path
                d="M36.4891 4.47119L30.3308 13.6426L30.3808 13.6761L36.539 4.50473L36.4891 4.47119Z"
                fill="#CBB68B" />
            <path
                d="M36.4354 4.44189L30.2771 13.6133L30.3271 13.6468L36.4853 4.47544L36.4354 4.44189Z"
                fill="#CAB58A" />
            <path
                d="M36.3865 4.40576L30.2283 13.5771L30.2782 13.6107L36.4365 4.43931L36.3865 4.40576Z"
                fill="#C9B589" />
            <path d="M36.3377 4.36865L30.1794 13.54L30.2294 13.5736L36.3877 4.4022L36.3377 4.36865Z"
                fill="#C8B488" />
            <path
                d="M36.2803 4.33154L30.1221 13.5029L30.172 13.5365L36.3303 4.36509L36.2803 4.33154Z"
                fill="#C8B387" />
            <path d="M36.232 4.29541L30.0737 13.4668L30.1237 13.5003L36.282 4.32895L36.232 4.29541Z"
                fill="#C7B286" />
            <path
                d="M36.1834 4.25928L30.0251 13.4307L30.0751 13.4642L36.2334 4.29282L36.1834 4.25928Z"
                fill="#C6B185" />
            <path d="M36.1263 4.23095L29.968 13.4023L30.018 13.4359L36.1763 4.2645L36.1263 4.23095Z"
                fill="#C5B084" />
            <path
                d="M36.0777 4.19385L29.9194 13.3652L29.9694 13.3988L36.1277 4.22739L36.0777 4.19385Z"
                fill="#C4AF83" />
            <path
                d="M36.0289 4.15771L29.8706 13.3291L29.9206 13.3626L36.0788 4.19126L36.0289 4.15771Z"
                fill="#C4AE82" />
            <path
                d="M35.9717 4.12158L29.8135 13.293L29.8634 13.3265L36.0217 4.15513L35.9717 4.12158Z"
                fill="#C3AE81" />
            <path
                d="M35.9232 4.08545L29.7649 13.2568L29.8149 13.2904L35.9731 4.11899L35.9232 4.08545Z"
                fill="#C2AD80" />
            <path d="M35.866 4.04443L29.7078 13.2158L29.7577 13.2494L35.916 4.07798L35.866 4.04443Z"
                fill="#C1AC7F" />
            <path
                d="M35.8175 4.0083L29.6592 13.1797L29.7091 13.2132L35.8674 4.04185L35.8175 4.0083Z"
                fill="#C0AB7E" />
            <path
                d="M35.7552 3.98584L29.5969 13.1572L29.6469 13.1908L35.8052 4.01939L35.7552 3.98584Z"
                fill="#C0AA7D" />
            <path
                d="M35.7064 3.94971L29.5481 13.1211L29.5981 13.1546L35.7563 3.98325L35.7064 3.94971Z"
                fill="#BFA97C" />
            <path
                d="M35.6578 3.91357L29.4995 13.085L29.5495 13.1185L35.7077 3.94712L35.6578 3.91357Z"
                fill="#BEA87B" />
            <path
                d="M35.6007 3.87646L29.4424 13.0479L29.4923 13.0814L35.6506 3.91001L35.6007 3.87646Z"
                fill="#BDA77A" />
            <path
                d="M35.5521 3.84033L29.3938 13.0117L29.4438 13.0453L35.602 3.87388L35.5521 3.84033Z"
                fill="#BCA779" />
            <path
                d="M35.5035 3.8042L29.3452 12.9756L29.3952 13.0091L35.5534 3.83775L35.5035 3.8042Z"
                fill="#BCA678" />
            <path
                d="M35.4464 3.77588L29.2881 12.9473L29.338 12.9808L35.4963 3.80942L35.4464 3.77588Z"
                fill="#BBA577" />
            <path
                d="M35.3975 3.73877L29.2393 12.9102L29.2892 12.9437L35.4475 3.77232L35.3975 3.73877Z"
                fill="#BAA476" />
            <path
                d="M35.3489 3.70263L29.1907 12.874L29.2406 12.9076L35.3989 3.73618L35.3489 3.70263Z"
                fill="#B9A375" />
            <path
                d="M35.3004 3.66748L29.1421 12.8389L29.1921 12.8724L35.3503 3.70103L35.3004 3.66748Z"
                fill="#B8A274" />
            <path
                d="M35.2364 3.62549L29.0781 12.7969L29.1281 12.8304L35.2864 3.65903L35.2364 3.62549Z"
                fill="#B8A173" />
            <path
                d="M35.1876 3.5874L29.0293 12.7588L29.0793 12.7923L35.2375 3.62095L35.1876 3.5874Z"
                fill="#B7A172" />
            <path
                d="M35.1387 3.55127L28.9805 12.7227L29.0304 12.7562L35.1887 3.58481L35.1387 3.55127Z"
                fill="#B6A071" />
            <path
                d="M35.077 3.53076L28.9187 12.7021L28.9687 12.7357L35.1269 3.56431L35.077 3.53076Z"
                fill="#B59F70" />
            <path
                d="M35.0281 3.49463L28.8699 12.666L28.9198 12.6996L35.0781 3.52817L35.0281 3.49463Z"
                fill="#B49E6F" />
            <path
                d="M34.9791 3.45849L28.8208 12.6299L28.8708 12.6634L35.029 3.49204L34.9791 3.45849Z"
                fill="#B49D6D" />
            <path
                d="M28.8175 12.6288L28.7659 12.5944L34.9127 3.44727H34.9557L34.9815 3.45586L28.8175 12.6288Z"
                fill="#B39C6C" />
            <path d="M28.7654 12.5944L28.7139 12.5601L34.8349 3.44727H34.9123L28.7654 12.5944Z"
                fill="#B29B6B" />
            <path d="M28.7149 12.5601L28.6633 12.5257L34.7586 3.44727H34.836L28.7149 12.5601Z"
                fill="#B19A6A" />
            <path d="M28.6629 12.5257L28.6113 12.4913L34.6894 3.44727H34.7582L28.6629 12.5257Z"
                fill="#B09A69" />
            <path d="M28.6109 12.4913L28.5593 12.4483L34.6116 3.44727H34.689L28.6109 12.4913Z"
                fill="#B09968" />
            <path d="M28.5606 12.4483L28.509 12.4139L34.5355 3.44727H34.6129L28.5606 12.4483Z"
                fill="#AF9867" />
            <path d="M28.5084 12.4139L28.4568 12.3795L34.4575 3.44727H34.5348L28.5084 12.4139Z"
                fill="#AE9766" />
            <path d="M28.4564 12.3795L28.4048 12.3451L34.3797 3.44727H34.4571L28.4564 12.3795Z"
                fill="#AD9665" />
            <path d="M28.4044 12.3451L28.3528 12.3107L34.3019 3.44727H34.3793L28.4044 12.3451Z"
                fill="#AC9564" />
            <path d="M28.3541 12.3107L28.3025 12.2764L34.2344 3.44727H34.3032L28.3541 12.3107Z"
                fill="#AC9463" />
            <path d="M28.3018 12.2764L28.2502 12.242L34.1564 3.44727H34.2337L28.3018 12.2764Z"
                fill="#AB9462" />
            <path d="M28.2498 12.242L28.1982 12.2076L34.0786 3.44727H34.1559L28.2498 12.242Z"
                fill="#AA9361" />
            <path d="M28.1981 12.2076L28.1379 12.1732L34.0011 3.44727H34.0784L28.1981 12.2076Z"
                fill="#A99260" />
            <path d="M28.139 12.1732L28.0874 12.1388L33.9247 3.44727H34.0021L28.139 12.1732Z"
                fill="#A8915F" />
            <path d="M28.087 12.1388L28.0354 12.1044L33.847 3.44727H33.9243L28.087 12.1388Z"
                fill="#A8905E" />
            <path d="M28.0347 12.1044L27.9832 12.07L33.7775 3.44727H33.8463L28.0347 12.1044Z"
                fill="#A78F5D" />
            <path d="M27.9847 12.07L27.9331 12.027L33.7017 3.44727H33.779L27.9847 12.07Z"
                fill="#A68E5C" />
            <path d="M27.9324 12.027L27.8809 11.9927L33.6236 3.44727H33.701L27.9324 12.027Z"
                fill="#A58D5B" />
            <path d="M27.8804 11.9927L27.8289 11.9583L33.5458 3.44727H33.6232L27.8804 11.9927Z"
                fill="#A48D5A" />
            <path d="M27.8282 11.9583L27.7766 11.9239L33.4678 3.44727H33.5452L27.8282 11.9583Z"
                fill="#A48C59" />
            <path d="M27.7781 11.9239L27.7266 11.8895L33.4006 3.44727H33.4693L27.7781 11.9239Z"
                fill="#A38B58" />
            <path d="M27.7259 11.8895L27.6743 11.8551L33.3225 3.44727H33.3999L27.7259 11.8895Z"
                fill="#A28A57" />
            <path d="M27.6739 11.8551L27.6223 11.8207L33.2447 3.44727H33.3221L27.6739 11.8551Z"
                fill="#A18956" />
            <path d="M27.6236 11.8207L27.572 11.7863L33.1687 3.44727H33.246L27.6236 11.8207Z"
                fill="#A08855" />
            <path d="M27.5717 11.7863L27.5115 11.7519L33.0909 3.44727H33.1683L27.5717 11.7863Z"
                fill="#A08754" />
            <path d="M27.5111 11.7519L27.4595 11.7176L33.0131 3.44727H33.0905L27.5111 11.7519Z"
                fill="#9F8653" />
            <path d="M27.4591 11.7176L27.4075 11.6832L32.9439 3.44727H33.0127L27.4591 11.7176Z"
                fill="#9E8652" />
            <path d="M27.4085 11.6832L27.3569 11.6488L32.8676 3.44727H32.945L27.4085 11.6832Z"
                fill="#9D8551" />
            <path d="M27.3565 11.6488L27.3049 11.6144L32.7898 3.44727H32.8672L27.3565 11.6488Z"
                fill="#9C8450" />
            <path d="M27.3045 11.6144L27.2529 11.5714L32.712 3.44727H32.7894L27.3045 11.6144Z"
                fill="#9C834F" />
            <path d="M27.2525 11.5714L27.2009 11.537L32.6342 3.44727H32.7116L27.2525 11.5714Z"
                fill="#9B824E" />
            <path d="M27.2022 11.537L27.1506 11.5026L32.5667 3.44727H32.6355L27.2022 11.537Z"
                fill="#9A814D" />
            <path d="M27.15 11.5026L27.0984 11.4682L32.4887 3.44727H32.5661L27.15 11.5026Z"
                fill="#99804C" />
            <path d="M27.098 11.4682L27.0464 11.4339L32.4109 3.44727H32.4883L27.098 11.4682Z"
                fill="#98804B" />
            <path d="M27.046 11.4339L26.9944 11.3995L32.3331 3.44727H32.4105L27.046 11.4339Z"
                fill="#977F4A" />
            <path d="M26.9957 11.3995L26.9441 11.3651L32.257 3.44727H32.3344L26.9957 11.3995Z"
                fill="#977E49" />
            <path d="M26.9434 11.3651L26.8918 11.3307L32.179 3.44727H32.2564L26.9434 11.3651Z"
                fill="#967D48" />
            <path d="M26.8915 11.3307L26.8313 11.2963L32.1098 3.44727H32.1786L26.8915 11.3307Z"
                fill="#957C47" />
            <path d="M26.8311 11.2963L26.7795 11.2619L32.0323 3.44727H32.1097L26.8311 11.2963Z"
                fill="#947B46" />
            <path d="M26.7806 11.2619L26.729 11.2275L31.956 3.44727H32.0333L26.7806 11.2619Z"
                fill="#937A45" />
            <path d="M26.7286 11.2275L26.677 11.1931L31.8782 3.44727H31.9555L26.7286 11.2275Z"
                fill="#937944" />
            <path d="M26.6763 11.1931L26.6248 11.1502L31.8001 3.44727H31.8775L26.6763 11.1931Z"
                fill="#927943" />
            <path d="M26.6263 11.1502L26.5747 11.1158L31.7243 3.44727H31.8017L26.6263 11.1502Z"
                fill="#917842" />
            <path d="M26.574 11.1158L26.5225 11.0814L31.6549 3.44727H31.7236L26.574 11.1158Z"
                fill="#907741" />
            <path d="M26.522 11.0814L26.4705 11.047L31.5771 3.44727H31.6544L26.522 11.0814Z"
                fill="#8F7640" />
            <path d="M26.4698 11.047L26.4182 11.0126L31.499 3.44727H31.5764L26.4698 11.047Z"
                fill="#8F753F" />
            <path d="M26.4197 11.0126L26.3682 10.9782L31.4232 3.44727H31.5006L26.4197 11.0126Z"
                fill="#8E743E" />
            <path d="M26.3675 10.9782L26.3159 10.9438L31.3451 3.44727H31.4225L26.3675 10.9782Z"
                fill="#8D733D" />
            <path d="M26.3155 10.9438L26.2639 10.9094L31.276 3.44727H31.3447L26.3155 10.9438Z"
                fill="#8C733C" />
            <path d="M26.2638 10.9094L26.2036 10.8751L31.1985 3.44727H31.2758L26.2638 10.9094Z"
                fill="#8B723B" />
            <path d="M26.2047 10.8751L26.1531 10.8407L31.1221 3.44727H31.1995L26.2047 10.8751Z"
                fill="#8B713A" />
            <path d="M26.1529 10.8407L26.1013 10.8063L31.0446 3.44727H31.122L26.1529 10.8407Z"
                fill="#8A7039" />
            <path d="M26.1013 10.8063V10.7977V10.6945L30.9672 3.44727H31.0446L26.1013 10.8063Z"
                fill="#896F38" />
            <path d="M26.1013 10.5828L30.8898 3.44727H30.9672L26.1013 10.6945V10.5828Z"
                fill="#886E37" />
            <path d="M26.1013 10.471L30.8211 3.44727H30.8898L26.1013 10.5828V10.471Z" fill="#876D36" />
            <path d="M26.1013 10.3506L30.7437 3.44727H30.8211L26.1013 10.471V10.3506Z"
                fill="#876C35" />
            <path d="M26.1013 10.2389L30.6663 3.44727H30.7437L26.1013 10.3506V10.2389Z"
                fill="#866C34" />
            <path d="M26.1013 10.1271L30.5889 3.44727H30.6663L26.1013 10.2389V10.1271Z"
                fill="#856B33" />
            <path d="M26.1013 10.0154L30.5116 3.44727H30.5889L26.1013 10.1271V10.0154Z"
                fill="#846A32" />
            <path d="M26.1013 9.90359L30.4428 3.44727H30.5116L26.1013 10.0154V9.90359Z"
                fill="#836931" />
            <path d="M26.1013 9.79183L30.3654 3.44727H30.4428L26.1013 9.90359V9.79183Z"
                fill="#836830" />
            <path d="M26.1013 9.68007L30.288 3.44727H30.3654L26.1013 9.79183V9.68007Z"
                fill="#82672F" />
            <path d="M26.1013 9.55971L30.2107 3.44727H30.288L26.1013 9.68007V9.55971Z"
                fill="#81662E" />
            <path d="M26.1013 9.44795L30.1333 3.44727H30.2107L26.1013 9.55971V9.44795Z"
                fill="#80652D" />
            <path d="M26.1013 9.33619L30.0559 3.44727H30.1333L26.1013 9.44795V9.33619Z"
                fill="#7F652C" />
            <path d="M26.1013 9.22443L29.9872 3.44727H30.0559L26.1013 9.33619V9.22443Z"
                fill="#7F642B" />
            <path d="M26.1013 9.11267L29.9098 3.44727H29.9872L26.1013 9.22443V9.11267Z"
                fill="#7E632A" />
            <path d="M26.1013 9.00091L29.8324 3.44727H29.9098L26.1013 9.11267V9.00091Z"
                fill="#7D6229" />
            <path d="M29.8324 3.44727L26.1013 9.00091V3.44727H29.8324Z" fill="#7D6229" />
        </g>
        <path d="M38.8936 0.360352L37.3462 6.21489L38.8936 0.360352Z" fill="#030325" />
        <mask id="mask1_409_8776" style="mask-type:luminance" maskUnits="userSpaceOnUse" x="26"
            y="3" width="12" height="13">
            <path
                d="M26.1013 10.0927L26.2475 9.8778L34.5951 3.44727C34.896 4.02326 35.3517 4.4961 35.9105 4.81418C36.4177 5.20965 37.0367 5.45036 37.6728 5.51054L34.8788 15.6722L34.7327 15.8871C34.3974 15.9473 34.0449 15.8785 33.7698 15.6808C32.8757 15.0876 33.4603 14.2193 32.5576 13.6261C31.655 13.0329 31.0962 13.884 30.2021 13.2908C29.308 12.6976 29.9012 11.8293 29.0071 11.2361C28.113 10.6429 27.537 11.5026 26.6515 10.9008C26.3678 10.7117 26.1701 10.4194 26.1099 10.0841L26.1013 10.0927Z"
                fill="white" />
        </mask>
        <g mask="url(#mask1_409_8776)">
            <path
                d="M37.8183 5.33887C37.9559 5.38185 38.0934 5.42484 38.231 5.46782C38.188 7.47092 35.8496 12.7581 35.8066 14.7612C35.798 15.2942 35.8152 15.8358 35.7636 16.3602C35.7292 16.6525 35.5745 16.9276 35.4713 17.2113C35.4369 17.2457 35.4026 17.2801 35.3682 17.3145H35.3768C35.1017 17.3918 34.8352 17.4692 34.5601 17.5466C34.6374 16.7986 34.7148 16.0507 34.8008 15.3028C35.0415 13.0761 37.569 7.56548 37.8097 5.33887H37.8183Z"
                fill="#CBA275" />
            <path
                d="M25.6277 10.6776C25.6277 10.265 25.6277 9.85233 25.6191 9.43968C25.7653 9.26774 25.8856 9.02702 26.0576 8.93246C28.0435 7.90942 32.3248 3.61093 34.3193 2.61368C34.3709 2.58789 34.431 2.59649 34.4912 2.58789C34.5772 2.73404 34.6718 2.87159 34.7577 3.01774C34.6374 3.06932 34.4998 3.09511 34.3881 3.16389C32.2302 4.57379 27.7856 9.27634 25.6277 10.6862V10.6776Z"
                fill="#F3D9B6" />
            <path
                d="M28.929 12.0012C28.8688 12.0442 28.8086 12.0786 28.7484 12.1216C27.3041 12.7664 26.1607 12.2419 25.6191 10.6773C27.777 9.26739 32.2216 4.56484 34.3795 3.15494C34.4912 3.08616 34.6202 3.05177 34.7491 3.00879C34.7749 3.00879 34.7921 3.02598 34.8179 3.02598C35.0328 3.2753 35.2478 3.5332 35.4627 3.78252C34.1903 5.20102 30.6312 9.90356 29.3674 11.3307C29.1955 11.5284 29.0665 11.7691 28.9204 11.9926L28.929 12.0012Z"
                fill="#F8D4A2" />
            <path
                d="M32.2208 14.6843C32.2294 14.6156 32.238 14.5468 32.2466 14.478C32.3498 14.2717 32.4616 14.0826 32.5389 13.8676C33.2267 11.9677 36.2012 6.78372 36.8804 4.88379C37.1899 5.03853 37.4994 5.19328 37.8089 5.34803C37.5682 7.57464 35.0407 13.0853 34.7999 15.3119C34.7226 16.0599 34.6366 16.8078 34.5592 17.5557C33.1923 17.5557 32.3068 16.7132 32.1607 15.2088C32.1435 15.0368 32.1951 14.8649 32.2208 14.6843Z"
                fill="#DDAF7E" />
            <path
                d="M36.8899 4.87521C36.2022 6.77514 33.2362 11.9677 32.5485 13.859C32.4711 14.074 32.3507 14.2631 32.2562 14.4694C30.915 15.7332 29.1355 14.4866 28.9205 13.0509C28.8689 12.7157 28.9205 12.3546 28.9377 12.0021C29.0839 11.7786 29.2128 11.5293 29.3848 11.3401C30.6485 9.91304 34.2077 5.21049 35.48 3.79199C35.9529 4.15307 36.4171 4.52273 36.8899 4.88381V4.87521Z"
                fill="#F0C897" />
        </g>
        <path
            d="M11.0131 7.27284C10.7724 7.22986 10.5316 7.22126 10.2909 7.27284C9.80089 7.376 9.41403 7.71129 9.13033 8.14973C8.84663 8.58818 8.6403 9.12979 8.47696 9.75737C8.28782 10.4967 8.16747 11.365 8.11589 12.2849C7.38514 12.2247 6.70598 12.2161 6.087 12.2591C5.26169 12.3193 4.54814 12.474 3.97214 12.7405C3.39615 13.007 2.94051 13.4197 2.75997 13.9785C2.57084 14.5631 2.75997 15.1735 3.07806 15.7237C3.40474 16.2825 3.88617 16.8069 4.45357 17.2281C4.58253 17.3227 4.74587 17.3485 4.89202 17.2797C5.03817 17.2195 5.14133 17.082 5.15853 16.9272C5.17572 16.7725 5.10694 16.6178 4.97799 16.5232C4.50516 16.1707 4.0839 15.7151 3.83459 15.2852C3.58528 14.8554 3.5165 14.4685 3.59388 14.2536C3.68844 13.9699 3.91197 13.7292 4.35041 13.5314C4.78026 13.3251 5.40784 13.179 6.15578 13.1274C6.73177 13.0844 7.38514 13.093 8.09009 13.1532C8.0729 13.9699 8.09869 14.821 8.16747 15.6721C6.12998 17.744 4.81465 19.7213 4.40199 21.3375C4.14408 22.3347 4.28164 23.246 4.82324 23.865C5.19291 24.2863 5.70873 24.5442 6.31052 24.5871C6.91231 24.6301 7.59147 24.484 8.42538 24.1745C8.58012 24.1229 8.68329 23.994 8.71767 23.8392C8.74346 23.6845 8.68329 23.5211 8.56293 23.4266C8.44257 23.3234 8.27063 23.2976 8.12448 23.3578C7.35075 23.6415 6.77476 23.7446 6.3707 23.7189C5.96664 23.6931 5.71733 23.5641 5.47661 23.289C5.16712 22.9451 5.03817 22.3691 5.2445 21.5696C5.55399 20.3402 6.61142 18.6552 8.27923 16.8327C8.33081 17.2109 8.38239 17.5892 8.45117 17.9589C8.9326 20.6325 9.81809 22.9623 10.8497 24.6043C11.3655 25.4296 11.9243 26.0744 12.5089 26.5129C13.0935 26.9513 13.7383 27.1834 14.3745 27.0545H14.4003L14.4261 27.0373C14.9849 26.8482 15.4233 26.4011 15.7586 25.8079C16.0939 25.2147 16.3346 24.4754 16.4893 23.6071C16.8074 21.8705 17.2975 27.0201 16.8848 24.5614C16.8418 24.3206 16.6183 24.1659 16.3776 24.2003C16.1369 24.2433 15.9821 24.4668 16.0165 24.7075C16.412 27.0717 15.9133 21.8447 15.621 23.4437C15.4749 24.2433 15.2514 24.9052 14.9849 25.3781C14.727 25.8337 14.4433 26.0916 14.1596 26.1948C13.8415 26.2464 13.4718 26.1518 13.0162 25.8079C12.5605 25.464 12.0533 24.888 11.5719 24.1315C10.6176 22.6184 9.74931 20.3746 9.28507 17.7955C9.18191 17.2195 9.10454 16.6092 9.04436 15.9988C9.42263 15.6205 9.82668 15.2336 10.2565 14.8468C10.6864 14.4685 11.1162 14.1074 11.5461 13.7722C11.6492 13.7979 11.761 13.8237 11.8642 13.8495C12.3198 13.9699 12.784 14.116 13.2483 14.2708C15.7414 15.0961 17.882 16.2051 19.292 17.3055C19.9969 17.8557 20.5213 18.4059 20.8136 18.8874C21.1059 19.3688 21.1661 19.7471 21.0629 20.0565C20.9684 20.3402 20.762 20.581 20.3838 20.7873C20.0055 20.9936 19.4553 21.157 18.7589 21.2257C18.5956 21.2343 18.458 21.3289 18.3893 21.475C18.3205 21.6212 18.3377 21.7931 18.4323 21.9221C18.5268 22.051 18.6902 22.1198 18.8449 22.094C19.6186 22.0167 20.2806 21.8361 20.805 21.5524C21.3294 21.2601 21.7163 20.8475 21.8968 20.323C22.1032 19.7041 21.9312 19.0421 21.5616 18.4231C21.1919 17.8041 20.5987 17.2023 19.8336 16.6092C18.3119 15.4228 16.1025 14.288 13.5234 13.4369C13.1623 13.3165 12.8012 13.2133 12.4402 13.1102C13.3686 12.4568 14.2799 11.9152 15.1224 11.5197C16.6269 10.8062 17.925 10.5483 18.6386 10.7202C18.9051 10.7804 19.0856 10.8922 19.2232 11.0383C19.6616 11.5369 19.8594 12.5858 18.7675 13.712C18.6472 13.8237 18.6042 13.9871 18.6472 14.1418C18.6902 14.2966 18.8105 14.4169 18.9653 14.4513C19.12 14.4857 19.2834 14.4341 19.3951 14.3138C20.7276 12.9382 20.6589 11.322 19.8851 10.4451C19.6186 10.1442 19.249 9.9465 18.8449 9.85193C17.7531 9.59402 16.3432 9.9551 14.7527 10.7202C13.6781 11.236 12.5175 11.941 11.3569 12.8179C10.5316 12.6202 9.72352 12.4654 8.96699 12.3708C9.01857 11.4768 9.13033 10.6429 9.30227 9.96369C9.44842 9.39629 9.63755 8.93206 9.83528 8.61397C10.0416 8.30448 10.2393 8.15833 10.4457 8.11534C10.566 8.08955 10.6864 8.08955 10.8153 8.11534C11.2538 8.20131 11.9759 8.89767 12.6637 9.87772C12.7497 10.0067 12.9044 10.0841 13.0591 10.0669C13.2139 10.0583 13.3514 9.9551 13.4202 9.81754C13.489 9.6714 13.4718 9.50805 13.3772 9.3791C12.6551 8.34746 11.9415 7.45338 10.9787 7.26424L11.0131 7.27284ZM10.4887 13.5314C10.2221 13.7464 9.96424 13.9699 9.69773 14.2106C9.44842 14.4341 9.2163 14.6576 8.98418 14.8726C8.95839 14.331 8.94979 13.7979 8.95839 13.2649C9.44842 13.3337 9.96424 13.4197 10.4887 13.5314ZM12.6981 15.4142C12.0017 15.225 11.2796 15.6377 11.0818 16.3341C10.8841 17.0304 11.3054 17.7526 12.0017 17.9503C12.6981 18.148 13.4202 17.7268 13.6179 17.0304C13.8157 16.3341 13.3944 15.6119 12.6981 15.4142Z"
            fill="black" />
        <path
            d="M0.653068 40.0614L39.1761 36.0552C39.4856 36.0208 39.7177 35.7629 39.7091 35.4534L39.4684 26.0311C39.4598 25.6873 39.1589 25.4208 38.815 25.4551L4.72803 29.2378C4.52171 29.2636 1.77068 35.1181 1.68471 35.3159L0.0512803 39.2361C-0.129256 39.6487 0.206026 40.1044 0.653068 40.0614Z"
            fill="black" />
        <path d="M13.9099 24.0368L33.2101 23.1943L32.2042 29.1177L6.29297 30.0117L13.9099 24.0368Z"
            fill="black" />
        <path
            d="M8.63124 19.3866L15.5948 18.6387L18.4146 33.6404L11.3737 34.3883L11.2791 32.6517L9.77464 32.8151L9.14706 34.629L1.6333 35.4286L8.63124 19.3866Z"
            fill="#0E1020" />
        <path
            d="M22.79 33.4682C10.9606 32.6343 16.0758 13.8843 28.9369 17.985L28.3179 25.3698L28.2405 25.3183L27.4324 32.1958C25.7044 32.9954 24.3547 33.4768 22.79 33.4682ZM25.2402 23.745C23.4864 23.4871 21.7412 26.8399 24.1483 27.0377C25.4379 27.1322 26.5813 25.6449 27.4496 24.7423C26.8134 24.2608 25.9881 23.6934 25.2487 23.745H25.2402Z"
            fill="#0E1020" />
        <path
            d="M31.8345 32.4884C30.1839 32.5486 28.0003 31.7921 26.1433 30.9066L28.6278 25.6796C25.851 22.0087 29.3586 16.8162 33.9666 16.4637C36.1072 16.1714 38.1963 16.799 40.3627 17.7876L38.0329 22.6965C42.0477 26.6167 37.0701 32.7893 31.8431 32.4884H31.8345Z"
            fill="#0E1020" />
        <path
            d="M37.3372 21.7674C37.277 21.8877 37.1223 21.9307 37.0105 21.8533C36.2368 21.3031 35.2825 21.0452 34.354 21.1398C33.8468 21.1914 33.4514 21.5353 33.4514 21.9221C33.4514 22.309 33.7265 22.4637 34.8699 22.6185C35.7725 22.7388 36.5205 22.971 37.0105 23.2375C37.896 23.7533 38.4462 24.8365 38.4462 26.0315C38.4462 28.6707 35.8671 31.0865 32.7206 31.4218C31.1474 31.5937 29.6773 31.3272 27.7344 30.4933C27.6226 30.4417 27.571 30.3128 27.6226 30.201L29.1615 26.96C29.2216 26.831 29.4022 26.788 29.5053 26.8912C30.2963 27.6305 31.4483 28.0002 32.5745 27.8798C33.2192 27.8111 33.6577 27.4672 33.6577 27.0201C33.6577 26.5731 33.288 26.3152 32.4369 26.2034C31.5084 26.1089 31.0442 25.9971 30.5456 25.8166C29.3248 25.3351 28.68 24.2863 28.68 22.7904C28.68 20.1511 31.0786 17.8128 34.0703 17.4947C35.6608 17.3227 36.9933 17.5291 38.7557 18.2426C38.8761 18.2856 38.9276 18.4232 38.8675 18.5435L37.3372 21.776V21.7674Z"
            fill="#FAA82A" />
        <path
            d="M8.25274 33.6918L3.65336 34.1818C3.48142 34.199 3.36106 34.0271 3.42983 33.8723L9.28437 20.4525C9.31876 20.3837 9.38754 20.3321 9.46491 20.3235L14.5629 19.7819C14.6747 19.7733 14.7778 19.8507 14.8036 19.9624L17.1592 32.5054C17.185 32.6344 17.0904 32.7547 16.9701 32.7633L12.577 33.2276C12.4481 33.2448 12.3449 33.1502 12.3363 33.0212L12.2675 31.7403C12.2675 31.6113 12.1472 31.5168 12.0268 31.534L9.17261 31.8349C9.08664 31.8435 9.01787 31.9036 8.99208 31.981L8.45047 33.5371C8.42468 33.6144 8.3473 33.6746 8.26993 33.6832L8.25274 33.6918ZM11.7173 28.5594C11.8377 28.5508 11.9236 28.4391 11.915 28.3187L11.7345 26.1952C11.7173 25.9459 11.6915 25.5935 11.6915 25.2754C11.6915 24.7853 11.6915 24.6478 11.7517 24.2093C11.6571 24.2179 11.5798 24.2867 11.5626 24.3813C11.4164 25.0261 11.2789 25.5161 11.0038 26.2812L10.2386 28.4047C10.1871 28.5594 10.3074 28.7142 10.4708 28.697L11.7173 28.568V28.5594Z"
            fill="#FAA82A" />
        <path
            d="M27.4752 23.1179C27.458 23.2813 27.2861 23.3758 27.14 23.2899C26.3834 22.8256 25.6441 22.6623 24.8274 22.7483C23.2713 22.9116 21.9388 24.3903 21.9388 25.9292C21.9388 27.3047 23.022 28.2159 24.4577 28.0612C25.2658 27.9752 25.9536 27.6657 26.6241 27.0811C26.7789 26.9522 27.011 27.0811 26.9852 27.2703L26.5038 31.371C26.4952 31.4484 26.4436 31.5172 26.3748 31.543C25.1627 32.076 24.4147 32.2995 23.5034 32.4027C21.9904 32.566 20.5547 32.2049 19.4113 31.3796C17.9584 30.3136 17.2104 28.663 17.2104 26.5567C17.2104 22.3872 20.2968 18.9484 24.4491 18.51C25.5065 18.3982 26.5897 18.4584 27.6644 18.7077C27.7675 18.7335 27.8449 18.828 27.8277 18.9398L27.4838 23.1007L27.4752 23.1179Z"
            fill="#FAA82A" />
        <g opacity="0.9">
            <path
                d="M27.8108 18.8618L27.4068 18.9736C27.1402 18.9736 26.8823 18.965 26.633 18.9736C25.9281 18.9048 24.9652 18.8618 24.2087 18.9994C22.9965 19.2229 20.6667 20.1514 19.7984 21.2432C16.4886 24.4585 18.0532 29.9433 18.0532 29.9433L17.7524 29.3588C17.3913 28.5506 17.2021 27.6222 17.2021 26.5733C17.2021 22.4038 20.2885 18.965 24.4408 18.5266C25.4982 18.4148 26.5814 18.475 27.6561 18.7243C27.7334 18.7415 27.7936 18.8017 27.8108 18.8704V18.8618Z"
                fill="white" />
        </g>
        <path
            d="M12.3372 17.649C12.8737 17.649 13.3086 17.214 13.3086 16.6775C13.3086 16.141 12.8737 15.7061 12.3372 15.7061C11.8007 15.7061 11.3657 16.141 11.3657 16.6775C11.3657 17.214 11.8007 17.649 12.3372 17.649Z"
            fill="#FAA82A" />
        <path
            d="M6.29306 10.9006C6.56844 10.9006 6.79168 10.6773 6.79168 10.4019C6.79168 10.1266 6.56844 9.90332 6.29306 9.90332C6.01768 9.90332 5.79443 10.1266 5.79443 10.4019C5.79443 10.6773 6.01768 10.9006 6.29306 10.9006Z"
            fill="#EE475F" />
        <path
            d="M15.1737 9.43182C15.4491 9.43182 15.6723 9.20858 15.6723 8.93319C15.6723 8.65781 15.4491 8.43457 15.1737 8.43457C14.8983 8.43457 14.675 8.65781 14.675 8.93319C14.675 9.20858 14.8983 9.43182 15.1737 9.43182Z"
            fill="#EE475F" />
        <path
            d="M3.04375 35.5655L5.22738 35.3506L5.08983 35.9094L3.54237 36.0641L3.36184 36.7949L4.72016 36.6573L4.58261 37.2075L3.22428 37.3451L2.9062 38.669L2.27002 38.7292L3.03515 35.5655H3.04375Z"
            fill="white" />
        <path
            d="M5.64002 35.2991L6.29339 35.2303L5.82056 37.1733C5.76898 37.3882 5.75178 37.5429 5.77757 37.6461C5.81196 37.818 5.95811 37.8868 6.21602 37.861C6.47393 37.8352 6.66306 37.7321 6.78342 37.5429C6.86079 37.4398 6.92097 37.2764 6.97255 37.0615L7.44539 35.1186L8.09876 35.0498L7.62592 36.9927C7.54855 37.328 7.42819 37.5945 7.28204 37.7922C7.00694 38.1533 6.61148 38.3596 6.07847 38.4112C5.54545 38.4628 5.23596 38.3253 5.1242 38.0072C5.07262 37.8266 5.08122 37.5687 5.16719 37.2334L5.64002 35.2905V35.2991Z"
            fill="white" />
        <path
            d="M10.9348 34.7744L10.7972 35.3332L9.88594 35.4278L9.25836 38.0327L8.61359 38.0928L9.24117 35.488L8.32129 35.5825L8.45884 35.0237L10.9348 34.7744Z"
            fill="white" />
        <path
            d="M11.3055 34.7405L11.9589 34.6717L11.4861 36.6147C11.4345 36.8296 11.4173 36.9843 11.4431 37.0875C11.4775 37.2594 11.6236 37.3282 11.8815 37.3024C12.1395 37.2766 12.3286 37.1735 12.4489 36.9843C12.5263 36.8812 12.5865 36.7178 12.6381 36.5029L13.1109 34.56L13.7643 34.4912L13.2914 36.4341C13.2141 36.7694 13.0937 37.0359 12.9476 37.2336C12.6725 37.5947 12.277 37.801 11.744 37.8526C11.211 37.9042 10.9015 37.7667 10.7897 37.4486C10.7381 37.268 10.7467 37.0101 10.8327 36.6748L11.3055 34.7319V34.7405Z"
            fill="white" />
        <path
            d="M16.318 34.3185C16.4212 34.3615 16.4985 34.4216 16.5501 34.5076C16.5931 34.585 16.6275 34.6624 16.6361 34.7569C16.6533 34.8515 16.6361 34.9633 16.6103 35.0836C16.5759 35.2298 16.4985 35.3845 16.3954 35.5392C16.2836 35.694 16.1375 35.8058 15.9569 35.8831C16.0859 35.9261 16.1633 36.0035 16.1976 36.1066C16.232 36.2098 16.2234 36.3732 16.1633 36.5967L16.1117 36.8116C16.0773 36.9577 16.0601 37.0523 16.0601 37.1039C16.0601 37.1813 16.0859 37.2414 16.1375 37.2758L16.1203 37.3532L15.4153 37.422C15.4153 37.3532 15.4153 37.3016 15.4153 37.2586C15.4153 37.1727 15.4325 37.0781 15.4583 36.9921L15.5271 36.6998C15.5701 36.5021 15.5701 36.3646 15.5271 36.3044C15.4755 36.2442 15.3637 36.2184 15.1918 36.2356L14.5642 36.2958L14.2633 37.5337L13.6357 37.5939L14.4009 34.4302L15.8624 34.2841C16.0687 34.2669 16.2234 34.2841 16.3266 34.3185H16.318ZM14.8823 34.9203L14.676 35.7714L15.3637 35.7026C15.5013 35.6854 15.6044 35.6596 15.6818 35.6166C15.8194 35.5478 15.9053 35.4189 15.9483 35.2384C15.9913 35.0492 15.9655 34.9203 15.871 34.8687C15.8108 34.8343 15.7162 34.8257 15.5873 34.8429L14.8823 34.9117V34.9203Z"
            fill="white" />
        <path
            d="M19.5665 34.4651L17.9503 34.6284L17.7869 35.299L19.2742 35.1528L19.1367 35.703L17.6494 35.8492L17.4517 36.6659L19.1453 36.4939L19.0077 37.0613L16.6865 37.2935L17.4517 34.1298L19.6955 33.9062L19.5579 34.4651H19.5665Z"
            fill="white" />
        <path
            d="M21.389 35.8661C21.3718 36.0123 21.389 36.1154 21.4234 36.1756C21.5007 36.296 21.6641 36.339 21.922 36.3132C22.0767 36.296 22.2057 36.2702 22.3088 36.2272C22.5066 36.1412 22.6269 36.0123 22.6699 35.8317C22.6957 35.7286 22.6699 35.6512 22.5925 35.5996C22.5152 35.5566 22.3862 35.5136 22.2057 35.4964L21.8962 35.4535C21.5867 35.4105 21.389 35.3503 21.2858 35.2815C21.1139 35.1526 21.0709 34.9376 21.1397 34.6282C21.2084 34.3445 21.3632 34.0951 21.6125 33.8888C21.8618 33.6825 22.1799 33.5621 22.5668 33.5191C22.8934 33.4848 23.1513 33.5449 23.3405 33.6997C23.5296 33.8544 23.5898 34.0951 23.5124 34.4304L22.902 34.4906C22.9364 34.3015 22.8848 34.1725 22.7559 34.1123C22.6699 34.0693 22.5496 34.0522 22.3948 34.0694C22.2229 34.0865 22.0853 34.1381 21.965 34.2155C21.8446 34.2929 21.7758 34.396 21.7414 34.5164C21.7157 34.6282 21.7414 34.7055 21.8274 34.7571C21.879 34.7915 22.0079 34.8173 22.2057 34.8517L22.7129 34.929C22.9364 34.9634 23.0912 35.0236 23.1857 35.1096C23.3319 35.2385 23.3749 35.4449 23.3061 35.7286C23.2373 36.0209 23.074 36.2702 22.8075 36.4851C22.541 36.7 22.2143 36.8204 21.8188 36.8634C21.4148 36.9064 21.1225 36.8376 20.9333 36.6742C20.7442 36.5109 20.6926 36.2616 20.7786 35.9349L21.389 35.8747V35.8661Z"
            fill="white" />
        <path
            d="M24.5013 33.743C24.8108 33.4593 25.1547 33.2959 25.5329 33.2615C26.0401 33.2099 26.3754 33.3475 26.5216 33.6742C26.6075 33.8547 26.6247 34.0439 26.5903 34.2416L25.9542 34.3018C25.9542 34.1556 25.9284 34.0439 25.8768 33.9751C25.7994 33.8461 25.6447 33.7945 25.4212 33.8203C25.1976 33.8461 24.9913 33.9579 24.8108 34.1642C24.6302 34.3705 24.5013 34.6542 24.4153 35.0067C24.3293 35.3592 24.3379 35.6171 24.4325 35.7804C24.5271 35.9438 24.6818 36.0126 24.8967 35.9954C25.1117 35.9696 25.3008 35.8836 25.4555 35.7203C25.5415 35.6343 25.6189 35.5053 25.7049 35.3334L26.341 35.2732C26.2035 35.6257 25.9972 35.918 25.7135 36.1587C25.4384 36.3994 25.1203 36.537 24.7678 36.5714C24.3293 36.6143 24.0284 36.5026 23.8479 36.2361C23.6674 35.9696 23.6416 35.5741 23.7705 35.0669C23.9081 34.5167 24.1488 34.0782 24.5013 33.7516V33.743Z"
            fill="white" />
        <path
            d="M26.5898 36.3048L27.355 33.1411L27.9912 33.0809L27.6989 34.2845L28.8852 34.1641L29.1775 32.9606L29.8137 32.9004L29.0486 36.0641L28.4124 36.1243L28.7563 34.7144L27.5699 34.8347L27.226 36.2446L26.5898 36.3048Z"
            fill="white" />
        <path
            d="M32.0843 35.4798C31.792 35.7463 31.431 35.901 30.9925 35.9526C30.5541 35.9956 30.2532 35.9096 30.0812 35.6861C29.8405 35.411 29.7975 34.9983 29.9351 34.4309C30.0726 33.8549 30.3392 33.3993 30.7174 33.0812C31.0097 32.8147 31.3708 32.6599 31.8092 32.6084C32.2477 32.5654 32.5486 32.6513 32.7205 32.8749C32.9612 33.1328 33.0042 33.554 32.8667 34.13C32.7291 34.6974 32.4712 35.1445 32.0843 35.4798ZM31.8006 35.0413C31.9984 34.835 32.1359 34.5513 32.2219 34.1988C32.3079 33.8463 32.2993 33.5798 32.1961 33.3993C32.0929 33.2187 31.921 33.1414 31.6631 33.1672C31.4138 33.193 31.1817 33.3133 30.9839 33.5196C30.7862 33.726 30.64 34.0097 30.5541 34.3707C30.4681 34.7232 30.4767 34.9983 30.5799 35.1703C30.683 35.3508 30.8636 35.4282 31.1129 35.4024C31.3622 35.3766 31.5943 35.2648 31.7834 35.0499L31.8006 35.0413Z"
            fill="white" />
        <path
            d="M35.3856 35.1536C35.0933 35.4201 34.7322 35.5748 34.2938 35.6264C33.8553 35.6694 33.5545 35.5834 33.3825 35.3599C33.1418 35.0848 33.0988 34.6721 33.2364 34.1047C33.3739 33.5288 33.6404 33.0731 34.0187 32.755C34.311 32.4885 34.6721 32.3338 35.1105 32.2822C35.549 32.2392 35.8498 32.3252 36.0218 32.5487C36.2625 32.8066 36.3055 33.2279 36.1679 33.8039C36.0304 34.3713 35.7725 34.8183 35.3856 35.1536ZM35.1019 34.7151C35.2996 34.5088 35.4372 34.2251 35.5232 33.8726C35.6091 33.5202 35.6005 33.2537 35.4974 33.0731C35.3942 32.8926 35.2223 32.8152 34.9644 32.841C34.715 32.8668 34.4829 32.9871 34.2852 33.1935C34.0875 33.3998 33.9499 33.6835 33.8553 34.0446C33.7694 34.397 33.778 34.6721 33.8811 34.8441C33.9843 35.0246 34.1648 35.102 34.4142 35.0762C34.6635 35.0504 34.8956 34.9387 35.0847 34.7237L35.1019 34.7151Z"
            fill="white" />
        <path
            d="M37.0369 32.1783L37.673 32.1182L37.0455 34.7145L38.5757 34.5597L38.4382 35.1271L36.2717 35.342L37.0369 32.1783Z"
            fill="white" />
        <path d="M28.2488 17.9943L31.4555 17.1689L28.2488 20.324V17.9943Z" fill="#0E1020" />
        <g opacity="0.9">
            <path
                d="M14.7944 19.9624C14.7772 19.8507 14.6655 19.7733 14.5537 19.7819L9.45572 20.3235C9.37835 20.3235 9.30958 20.3837 9.27519 20.4525L3.42065 33.8723C3.36907 34.0013 3.43784 34.1388 3.5582 34.1732L9.71363 20.762L14.8202 20.1172L14.7944 19.9538V19.9624Z"
                fill="white" />
        </g>
        <g opacity="0.9">
            <path
                d="M33.3473 27.5963C33.1582 27.7425 32.8917 27.8371 32.5822 27.8714C31.4474 27.9918 30.2954 27.6221 29.513 26.8828C29.4099 26.7796 29.2293 26.8226 29.1692 26.9516L27.8022 29.8316L27.8366 29.9261L29.4529 27.2353C29.4529 27.2353 30.7252 28.0778 32.1265 28.0778C32.4876 28.0778 32.9174 27.9832 33.2097 27.8457C33.3817 27.7597 33.3903 27.8113 33.3559 27.5877L33.3473 27.5963Z"
                fill="white" />
        </g>
        <g opacity="0.9">
            <path
                d="M38.7207 18.2338C36.9583 17.5203 35.6258 17.314 34.0353 17.4859C31.0436 17.804 28.645 20.1424 28.645 22.7816C28.645 24.0196 29.0921 24.9481 29.9346 25.5069C30.1065 25.3521 29.9174 25.077 29.8486 25.0168C28.5591 23.8133 29.0921 21.6984 29.393 21.1138C29.754 20.4175 30.7341 19.2397 31.8345 18.6379C33.2444 17.8728 34.5597 17.8212 35.8751 17.847C36.8723 17.8642 38.1963 18.3628 38.7894 18.6121L38.8238 18.5347C38.8754 18.423 38.8238 18.2854 38.7121 18.2338H38.7207Z"
                fill="white" />
        </g>
    </g>
    <defs>
        <clipPath id="clip0_409_8776">
            <rect width="40.3542" height="50" fill="white" />
        </clipPath>
    </defs>
</svg>